<svg xmlns="http://www.w3.org/2000/svg" xmlns:xlink="http://www.w3.org/1999/xlink" width="500" zoomAndPan="magnify" viewBox="0 0 375 374.999991" height="500" preserveAspectRatio="xMidYMid meet" version="1.0"><defs><clipPath id="f64260dd44"><path d="M 9.167969 26 L 366 26 L 366 348.953125 L 9.167969 348.953125 Z M 9.167969 26 " clip-rule="nonzero"/></clipPath></defs><g clip-path="url(#f64260dd44)"><path fill="#ffbd59" d="M 358.78125 292.191406 C 358.78125 292.414062 358.929688 292.710938 358.855469 292.859375 C 355.722656 298.222656 352.660156 303.660156 349.378906 308.945312 C 348.40625 310.4375 346.988281 311.628906 345.796875 312.96875 C 345.796875 312.96875 345.871094 312.894531 345.871094 312.894531 L 339.75 320.5625 C 341.394531 317.734375 343.109375 314.980469 345.796875 312.96875 Z M 364.972656 267.464844 C 365.644531 270.144531 365.496094 272.902344 364.453125 275.507812 C 364.601562 272.902344 364.75 270.21875 364.898438 267.613281 C 364.898438 267.613281 364.898438 267.613281 364.898438 267.6875 L 365.570312 256.515625 C 365.050781 254.878906 364.453125 253.238281 363.855469 251.378906 C 362.0625 257.261719 360.273438 262.699219 358.707031 268.207031 C 356.46875 275.878906 353.40625 283.328125 349.75 290.476562 C 348.183594 293.53125 346.839844 296.65625 344.976562 299.488281 C 340.871094 305.59375 335.199219 310.210938 329.304688 314.679688 C 326.09375 317.136719 322.511719 319 318.78125 320.339844 C 315.871094 321.382812 313.183594 322.722656 310.351562 323.988281 C 306.84375 325.628906 303.335938 327.265625 299.828125 328.90625 C 298.410156 329.574219 297.066406 330.320312 295.722656 330.992188 C 299.453125 331.734375 303.035156 331.660156 306.46875 332.183594 C 313.410156 333.152344 320.425781 332.480469 327.066406 330.171875 C 326.019531 330.839844 325.050781 331.882812 323.855469 332.257812 C 313.183594 335.011719 302.363281 336.949219 291.394531 337.097656 C 289.378906 337.097656 287.441406 337.617188 285.648438 338.4375 C 281.246094 340.523438 276.917969 342.832031 272.367188 344.246094 C 267.589844 345.660156 262.738281 346.703125 257.890625 347.375 C 253.933594 348.046875 249.90625 348.121094 245.875 348.417969 C 239.753906 348.789062 233.5625 348.417969 227.515625 347.449219 C 218.265625 345.960938 208.9375 345.738281 199.609375 346.777344 C 195.429688 347.300781 191.175781 346.703125 186.921875 346.40625 C 182.890625 346.109375 178.9375 345.140625 174.980469 345.214844 C 165.878906 345.363281 158.414062 341.863281 151.847656 336.054688 C 145.582031 330.46875 139.609375 324.585938 133.714844 318.777344 C 132 316.988281 130.433594 315.054688 129.089844 312.96875 C 120.730469 300.828125 110.730469 290.253906 100.058594 280.199219 C 95.804688 276.175781 90.582031 273.199219 85.882812 269.699219 C 77.226562 263.367188 68.570312 257.039062 60.0625 250.484375 C 57.824219 248.546875 55.882812 246.386719 54.242188 243.855469 C 48.347656 235.441406 42.675781 226.949219 36.855469 218.460938 C 33.121094 213.023438 29.464844 207.511719 27.226562 201.257812 C 25.285156 195.96875 22.75 190.902344 19.617188 186.136719 C 19.019531 185.019531 18.421875 183.902344 17.972656 182.710938 L 21.257812 186.4375 C 21.035156 184.871094 20.957031 183.976562 20.808594 183.085938 C 19.765625 177.199219 18.644531 171.316406 17.824219 165.359375 C 17.003906 159.847656 16.929688 154.261719 19.765625 149.199219 C 24.167969 141.304688 28.792969 133.484375 35.359375 127.078125 C 36.183594 126.1875 36.855469 125.21875 37.527344 124.25 C 34.613281 124.101562 31.703125 125.21875 29.691406 127.378906 C 26.78125 130.28125 23.871094 133.1875 21.109375 136.238281 C 15.214844 142.71875 11.109375 150.09375 10.363281 159.027344 C 9.167969 157.316406 9.988281 155.601562 10.363281 153.964844 C 11.109375 150.242188 12.601562 146.742188 14.765625 143.613281 C 18.273438 138.773438 21.707031 133.855469 25.660156 129.386719 C 29.464844 125.070312 34.464844 122.089844 40.0625 120.824219 C 42.675781 120.226562 43.867188 117.992188 45.136719 116.132812 C 51.703125 106.003906 61.332031 99.523438 71.40625 93.492188 C 74.015625 91.929688 76.777344 90.4375 79.390625 88.949219 C 84.089844 86.042969 89.164062 83.660156 94.390625 81.875 C 97.597656 80.832031 100.65625 79.117188 103.714844 77.628906 C 107.820312 75.617188 111.851562 73.382812 116.105469 71.597656 C 125.058594 67.871094 133.9375 64.074219 142.371094 59.234375 C 148.714844 55.585938 155.503906 52.753906 161.773438 48.957031 C 168.414062 44.859375 175.429688 41.433594 182.742188 38.679688 C 186.847656 37.261719 191.101562 36.070312 195.355469 35.179688 C 198.710938 34.433594 201.996094 33.613281 204.980469 31.828125 C 208.339844 29.816406 212.144531 29.445312 215.949219 29.519531 C 219.757812 29.667969 223.488281 29.890625 227.292969 30.1875 C 233.710938 30.636719 239.980469 29.519531 246.246094 28.253906 C 256.320312 26.242188 266.394531 25.867188 276.394531 28.847656 C 276.992188 28.996094 277.515625 29.070312 278.113281 29.144531 C 292.886719 29.816406 306.917969 33.835938 320.648438 39.050781 C 325.5 40.988281 330.125 43.296875 334.453125 46.125 C 337.214844 47.839844 340.125 50.074219 341.542969 52.828125 C 345.722656 61.09375 351.394531 68.988281 349.304688 79.191406 C 349.003906 80.609375 349.75 82.46875 350.496094 83.808594 C 352.511719 87.386719 354.824219 90.8125 356.914062 94.386719 C 358.035156 96.320312 358.109375 98.183594 357.734375 100.566406 C 356.988281 106.003906 354.824219 111.214844 351.46875 115.609375 C 349.078125 118.664062 348.40625 122.386719 347.886719 126.1875 C 347.140625 131.773438 346.914062 137.433594 347.066406 143.089844 C 347.214844 148.976562 347.066406 154.859375 346.542969 160.742188 C 346.167969 166.773438 346.914062 172.808594 348.78125 178.542969 C 350.496094 184.203125 351.617188 189.9375 352.8125 195.746094 C 354.078125 201.703125 355.796875 207.660156 357.886719 213.394531 C 360.570312 220.769531 361.839844 228.4375 363.035156 236.109375 C 363.632812 239.609375 364.304688 243.035156 363.78125 246.609375 C 363.632812 247.953125 364.304688 249.367188 364.527344 250.707031 C 364.898438 252.644531 365.125 254.503906 365.496094 256.441406 L 365.496094 256.367188 C 366.167969 260.089844 365.945312 263.890625 364.972656 267.464844 Z M 281.695312 30.785156 C 281.992188 30.933594 282.292969 31.15625 282.589844 31.230469 C 290.648438 34.582031 298.859375 37.5625 306.617188 41.433594 C 314.007812 45.082031 321.019531 49.476562 328.035156 53.796875 C 331.617188 56.03125 334.902344 58.710938 338.332031 61.246094 C 340.796875 63.105469 342.660156 65.636719 343.558594 68.617188 C 344.230469 70.554688 344.976562 72.339844 345.722656 74.277344 L 346.542969 73.980469 C 346.019531 72.414062 345.570312 70.851562 344.976562 69.363281 C 341.617188 60.054688 336.46875 51.859375 328.929688 45.308594 C 326.246094 42.847656 323.109375 40.988281 319.753906 39.574219 C 310.273438 35.847656 300.425781 33.539062 290.574219 31.304688 C 287.738281 30.636719 284.753906 30.410156 281.917969 30.039062 Z M 43.421875 120.453125 C 47.75 119.929688 51.332031 119.632812 54.914062 118.960938 C 59.988281 117.992188 65.0625 116.28125 70.136719 115.835938 C 79.761719 115.015625 89.464844 114.867188 99.164062 114.640625 C 107 114.492188 114.613281 112.332031 121.328125 108.238281 C 124.089844 106.449219 127.074219 104.960938 130.207031 103.84375 C 134.761719 102.429688 139.011719 100.417969 142.894531 97.738281 C 150.582031 92.226562 158.191406 86.714844 165.953125 81.277344 C 172.070312 76.957031 177.742188 72.414062 181.027344 65.265625 C 183.117188 60.945312 186.625 57.519531 190.878906 55.433594 C 197.964844 51.933594 205.054688 48.433594 212.292969 45.230469 C 218.339844 42.476562 224.382812 39.945312 230.578125 37.636719 C 236.769531 35.328125 242.742188 32.945312 249.007812 31.605469 C 255.277344 30.1875 261.695312 30.113281 268.039062 29.445312 C 268.933594 29.371094 269.753906 29.21875 270.574219 29.070312 C 269.828125 28.476562 268.859375 28.175781 267.890625 28.101562 C 261.320312 27.433594 254.605469 27.730469 248.113281 28.921875 C 241.25 30.261719 234.457031 31.753906 227.367188 31.15625 C 224.160156 30.933594 221.023438 30.710938 217.816406 30.5625 C 212.890625 30.261719 208.191406 30.859375 203.863281 33.464844 C 201.773438 34.730469 199.234375 35.179688 196.847656 35.847656 C 192.519531 37.039062 188.042969 37.785156 183.863281 39.273438 C 176.550781 41.882812 169.460938 45.308594 162.894531 49.402344 C 156.773438 53.199219 150.058594 55.957031 143.863281 59.53125 C 135.28125 64.519531 126.179688 68.46875 117 72.339844 C 112.449219 74.203125 108.121094 76.660156 103.640625 78.820312 C 100.730469 80.308594 97.671875 81.648438 94.613281 82.84375 C 89.613281 84.554688 84.761719 86.863281 80.210938 89.617188 C 77.972656 90.960938 75.734375 92.226562 73.492188 93.492188 C 61.628906 100.046875 50.957031 107.714844 43.421875 120.453125 Z M 362.585938 244.226562 C 362.214844 239.3125 361.167969 234.546875 360.421875 229.632812 C 360.644531 228.886719 360.722656 228.140625 360.722656 227.324219 C 359.898438 223.671875 359.078125 219.949219 358.035156 216.375 C 356.09375 209.671875 353.183594 203.339844 351.988281 196.414062 C 351.242188 191.648438 350.273438 186.882812 349.003906 182.265625 C 346.542969 173.925781 344.824219 165.582031 346.242188 156.871094 C 346.394531 155.230469 346.46875 153.59375 346.46875 151.953125 C 346.765625 143.167969 345.496094 134.304688 347.140625 125.515625 C 348.109375 120.300781 349.601562 115.535156 353.183594 111.515625 C 354.824219 109.652344 356.019531 107.492188 356.019531 104.8125 C 355.871094 103.917969 355.945312 102.949219 356.242188 102.054688 C 357.960938 98.257812 356.617188 95.128906 354.453125 92.003906 C 353.332031 90.363281 352.363281 88.578125 351.242188 86.9375 C 350.648438 86.191406 350.050781 85.523438 349.453125 84.925781 C 349.304688 86.566406 349.304688 87.609375 349.230469 88.652344 C 348.78125 94.238281 348.40625 99.898438 347.8125 105.554688 C 347.363281 110.023438 346.617188 114.417969 345.648438 118.8125 C 344.453125 123.726562 342.585938 128.496094 341.320312 133.335938 C 340.421875 136.984375 339.824219 140.707031 339.453125 144.433594 C 338.707031 151.359375 338.257812 158.285156 337.660156 165.210938 C 337.511719 166.253906 337.4375 167.296875 337.585938 168.339844 C 338.78125 173.402344 339.902344 178.46875 341.46875 183.382812 C 342.886719 187.777344 344.75 191.945312 346.46875 196.265625 C 348.035156 200.585938 350.050781 204.757812 352.4375 208.628906 C 355.644531 213.769531 357.214844 219.503906 358.40625 225.386719 C 357.886719 224.789062 357.363281 224.121094 356.914062 223.449219 C 353.332031 217.34375 350.050781 211.085938 346.167969 205.203125 C 342.066406 198.871094 340.125 191.722656 336.992188 184.945312 C 336.691406 184.203125 336.542969 183.382812 336.46875 182.5625 C 336.246094 181.074219 335.945312 179.585938 335.574219 178.09375 C 334.976562 175.933594 334.902344 173.699219 335.347656 171.464844 C 335.796875 168.488281 336.09375 165.433594 336.09375 162.378906 C 336.09375 155.902344 335.796875 149.421875 335.722656 142.941406 C 335.648438 137.953125 336.839844 133.039062 339.078125 128.644531 C 339.378906 128.046875 339.675781 127.378906 339.976562 126.707031 C 342.289062 121.792969 343.707031 116.503906 344.15625 111.140625 C 345.050781 101.90625 346.09375 92.671875 346.988281 83.363281 C 347.140625 81.949219 346.988281 80.53125 346.542969 79.191406 C 345.347656 75.46875 343.929688 71.894531 342.289062 68.320312 C 341.242188 66.085938 339.824219 64.074219 338.035156 62.363281 C 335.050781 59.679688 331.839844 57.222656 328.410156 55.136719 C 315.945312 47.542969 303.261719 40.09375 289.53125 35.03125 C 273.859375 29.21875 279.828125 29.21875 262.964844 32.199219 C 262.066406 32.347656 260.949219 32.644531 260.203125 32.273438 C 257.738281 31.15625 255.277344 31.679688 252.890625 32.050781 C 245.875 33.019531 239.457031 35.773438 233.113281 38.605469 C 225.652344 41.957031 218.1875 45.230469 210.800781 48.582031 C 208.863281 49.402344 206.996094 50.445312 205.203125 51.636719 C 201.25 54.394531 197.519531 57.519531 193.5625 60.277344 C 187.59375 64.371094 181.996094 68.839844 177.59375 74.648438 C 173.117188 80.609375 167.445312 85 161.101562 88.800781 C 151.699219 94.386719 142.445312 100.417969 133.269531 106.375 C 130.28125 108.3125 127.074219 109.800781 123.714844 110.84375 C 120.804688 111.664062 117.96875 113.003906 115.058594 113.898438 C 111.253906 115.015625 107.375 116.578125 103.492188 116.875 C 94.6875 117.546875 85.808594 117.472656 76.925781 117.84375 C 74.539062 117.917969 72.226562 118.21875 69.910156 118.8125 C 60.660156 121.269531 51.40625 123.578125 41.703125 123.804688 C 40.585938 123.878906 39.464844 124.324219 38.644531 125.144531 C 33.496094 130.503906 28.347656 135.792969 24.914062 142.570312 C 24.242188 143.835938 23.496094 145.027344 22.675781 146.144531 C 18.496094 151.804688 17.601562 158.285156 18.644531 164.988281 C 19.617188 171.390625 20.734375 177.796875 21.929688 184.128906 C 22.75 188.445312 24.167969 192.542969 27.078125 195.96875 C 28.421875 197.757812 29.617188 199.617188 30.660156 201.554688 L 27.152344 198.054688 C 27.601562 199.394531 27.824219 200.214844 28.121094 201.03125 C 30.363281 206.917969 33.71875 212.203125 37.226562 217.34375 C 43.195312 226.128906 49.09375 234.917969 55.210938 243.558594 C 56.851562 246.015625 58.792969 248.25 61.105469 250.113281 C 69.613281 256.664062 78.34375 262.921875 87 269.25 C 91.628906 272.675781 96.851562 275.507812 100.957031 279.527344 C 110.285156 288.464844 119.3125 297.847656 127 308.351562 C 129.3125 311.476562 131.253906 314.980469 134.015625 317.660156 C 140.507812 324.140625 147.148438 330.542969 154.085938 336.5 C 159.757812 341.34375 166.402344 344.171875 174.160156 344.171875 C 178.488281 344.171875 182.816406 345.140625 187.21875 345.4375 C 191.472656 345.738281 195.726562 346.257812 199.90625 345.738281 C 208.113281 344.769531 216.472656 344.84375 224.605469 346.109375 C 233.710938 347.523438 242.964844 347.820312 252.144531 347.003906 C 262.292969 346.109375 271.992188 344.171875 281.097656 339.554688 C 282.441406 338.886719 283.785156 338.289062 285.050781 337.617188 L 284.902344 336.800781 C 281.84375 337.023438 278.710938 337.171875 275.574219 337.542969 C 267.964844 338.585938 260.425781 339.925781 252.816406 340.746094 C 246.246094 341.417969 239.605469 341.566406 233.039062 341.789062 C 218.113281 342.234375 203.191406 343.652344 188.117188 342.234375 C 179.757812 341.417969 172.222656 338.734375 164.832031 335.535156 C 157.445312 332.332031 150.730469 327.414062 144.609375 322.054688 C 137.445312 315.722656 132.445312 307.679688 126.851562 300.160156 C 122.894531 294.796875 119.984375 288.613281 116.328125 282.953125 C 113.867188 279.15625 111.253906 275.210938 108.042969 272.082031 C 103.046875 267.242188 96.851562 263.964844 91.628906 259.273438 C 87.148438 255.25 81.777344 252.046875 76.480469 249.070312 C 71.03125 246.015625 66.777344 242.144531 63.867188 236.632812 C 62.972656 234.992188 61.851562 233.429688 60.507812 232.164062 C 52.75 224.789062 44.839844 217.640625 37.226562 210.117188 C 34.765625 207.585938 33.046875 204.308594 30.957031 201.40625 C 31.480469 201.851562 32.003906 202.375 32.449219 202.894531 C 36.554688 209.300781 42.523438 214.066406 47.824219 219.351562 C 59.539062 231.046875 72.824219 240.800781 85.433594 251.378906 C 93.640625 258.230469 102.820312 263.816406 110.207031 271.785156 C 113.867188 275.804688 117.222656 279.976562 120.28125 284.445312 C 124.015625 289.730469 127.523438 295.167969 131.328125 300.457031 C 132.894531 302.542969 134.609375 304.476562 136.550781 306.191406 C 141.328125 310.660156 146.253906 315.054688 151.175781 319.445312 C 151.847656 319.96875 152.519531 320.414062 153.191406 320.863281 C 159.011719 324.734375 165.578125 327.117188 172.070312 329.574219 C 178.863281 332.109375 186.027344 332.925781 193.042969 334.640625 C 201.621094 336.652344 210.355469 338.289062 219.160156 339.332031 C 223.265625 339.851562 227.21875 340.671875 231.324219 339.257812 C 233.339844 338.585938 235.800781 338.886719 238.039062 338.660156 C 239.085938 338.585938 240.128906 338.511719 241.171875 338.289062 C 246.472656 337.097656 251.769531 335.832031 257.066406 334.640625 C 264.828125 332.925781 272.589844 331.660156 280.574219 332.035156 C 283.039062 332.109375 285.5 332.035156 288.039062 332.109375 C 290.648438 332.183594 293.113281 331.808594 295.425781 330.171875 C 296.992188 329.054688 299.007812 328.457031 300.871094 327.640625 C 303.78125 326.296875 306.617188 324.882812 309.453125 323.542969 C 312.664062 322.054688 315.945312 320.640625 319.15625 319.222656 C 321.617188 318.105469 324.304688 317.289062 326.46875 315.722656 C 330.574219 312.746094 334.527344 309.617188 338.332031 306.191406 C 341.914062 303.0625 344.824219 299.265625 346.914062 295.019531 C 348.855469 291.148438 350.648438 287.125 352.4375 283.179688 C 353.40625 281.167969 354.226562 279.082031 354.976562 276.996094 C 356.765625 271.632812 358.257812 266.199219 360.273438 260.910156 C 362.214844 255.546875 363.035156 249.886719 362.585938 244.226562 Z M 361.242188 285.1875 C 363.035156 282.136719 364.378906 278.933594 364.453125 275.359375 Z M 11.78125 168.039062 C 11.257812 169.902344 12.078125 171.390625 13.273438 172.734375 Z M 11.632812 167.59375 C 11.257812 166.179688 10.882812 164.6875 10.4375 163.199219 C 9.691406 164.988281 10.136719 166.476562 11.632812 167.59375 Z M 360.050781 289.359375 L 361.242188 285.039062 C 360.796875 286.378906 359.078125 287.496094 360.050781 289.359375 Z M 360.347656 229.707031 C 359.675781 228.214844 359.003906 226.652344 358.332031 225.164062 C 358.558594 226.875 358.707031 228.589844 360.347656 229.707031 Z M 360.347656 229.707031 " fill-opacity="1" fill-rule="nonzero"/></g></svg>