<svg xmlns="http://www.w3.org/2000/svg" xmlns:xlink="http://www.w3.org/1999/xlink" width="600" zoomAndPan="magnify" viewBox="0 0 450 455.999984" height="608" preserveAspectRatio="xMidYMid meet" version="1.0"><defs><clipPath id="81cf742deb"><path d="M 363 248 L 385.125 248 L 385.125 347 L 363 347 Z M 363 248 " clip-rule="nonzero"/></clipPath></defs><path fill="#ff9900" d="M 264.285156 94.433594 C 260.28125 124.945312 276.234375 144.550781 293.347656 149.605469 C 319.347656 157.285156 345.472656 117.472656 322.601562 107.335938 C 315.382812 104.136719 298.871094 99.792969 291.632812 89.75 C 277.734375 70.472656 266.359375 78.625 264.285156 94.433594 " fill-opacity="1" fill-rule="nonzero"/><path fill="#ff9900" d="M 62.546875 208.398438 C 64.09375 207.0625 73.441406 198.320312 90.898438 197.117188 C 108.359375 195.910156 104.417969 181.890625 96.488281 179.3125 C 88.558594 176.734375 69.203125 175.980469 53.988281 179.871094 C 35.949219 184.484375 42.933594 225.355469 62.546875 208.398438 " fill-opacity="1" fill-rule="nonzero"/><path fill="#ff9900" d="M 86.0625 375.34375 C 101.257812 383.773438 118.761719 386.527344 135.671875 384.082031 C 149.488281 382.089844 172.128906 383.078125 198.371094 400.8125 C 241.804688 430.171875 273.75 449.089844 303.128906 414.871094 C 332.503906 380.648438 290.152344 278.585938 241.726562 239.734375 C 193.304688 200.882812 125.992188 178.9375 82.792969 225.953125 C 48.679688 263.082031 23.613281 340.6875 86.0625 375.34375 " fill-opacity="1" fill-rule="nonzero"/><path fill="#000000" d="M 302.304688 130.609375 C 303.390625 131.015625 304.480469 131.4375 305.578125 131.878906 C 351.660156 215.949219 238.617188 297.457031 295.191406 381.695312 C 294.265625 381.589844 293.332031 381.46875 292.386719 381.332031 C 236.042969 296.796875 350.113281 215.007812 302.304688 130.609375 " fill-opacity="1" fill-rule="nonzero"/><path fill="#000000" d="M 290.441406 126.808594 C 291.472656 127.085938 292.503906 127.375 293.542969 127.683594 C 345.285156 212.625 229.539062 294.871094 284.390625 379.867188 C 283.378906 379.636719 282.363281 379.390625 281.347656 379.125 C 227.402344 294.101562 343.3125 211.8125 290.441406 126.808594 " fill-opacity="1" fill-rule="nonzero"/><path fill="#000000" d="M 279.273438 124.351562 C 280.238281 124.515625 281.210938 124.695312 282.183594 124.886719 C 337.285156 209.660156 222.316406 291.6875 272.628906 376.382812 C 271.507812 375.960938 270.390625 375.507812 269.28125 375.035156 C 220.8125 290.640625 334.859375 208.863281 279.273438 124.351562 " fill-opacity="1" fill-rule="nonzero"/><path fill="#000000" d="M 258.980469 122.695312 C 259.824219 122.683594 260.679688 122.683594 261.539062 122.695312 C 315.035156 201.421875 219.855469 277.753906 244.222656 356.007812 C 242.5625 353.769531 241.054688 351.359375 239.726562 348.753906 C 222.992188 273.027344 310.773438 198.984375 258.980469 122.695312 " fill-opacity="1" fill-rule="nonzero"/><path fill="#000000" d="M 268.800781 123.035156 C 269.707031 123.105469 270.617188 123.1875 271.535156 123.285156 C 327.492188 206.46875 217.960938 286.984375 259.484375 369.933594 C 258.183594 369.121094 256.914062 368.25 255.671875 367.335938 C 217.585938 285.21875 324.503906 205.433594 268.800781 123.035156 " fill-opacity="1" fill-rule="nonzero"/><path fill="#000000" d="M 249.757812 123.238281 C 250.550781 123.152344 251.351562 123.078125 252.164062 123.011719 C 281.503906 166.664062 265.28125 209.582031 249.246094 252.503906 C 249.671875 249.425781 249.941406 246.363281 250.058594 243.328125 C 264.734375 203.535156 276.78125 163.703125 249.757812 123.238281 " fill-opacity="1" fill-rule="nonzero"/><path fill="#000000" d="M 241.078125 124.636719 C 241.820312 124.476562 242.574219 124.324219 243.339844 124.179688 C 265.554688 158.285156 260.222656 191.949219 249.179688 225.523438 C 248.933594 223.6875 248.644531 221.867188 248.320312 220.074219 C 258.078125 188.457031 261.738281 156.742188 241.078125 124.636719 " fill-opacity="1" fill-rule="nonzero"/><path fill="#000000" d="M 314.75 135.972656 C 315.898438 136.535156 317.019531 137.105469 318.128906 137.671875 C 356.460938 219.921875 249.136719 299.824219 305.230469 382.363281 C 305.203125 382.359375 305.179688 382.363281 305.152344 382.363281 C 304.328125 382.347656 303.476562 382.320312 302.617188 382.28125 C 246.203125 299.207031 355.316406 218.796875 314.75 135.972656 " fill-opacity="1" fill-rule="nonzero"/><g clip-path="url(#81cf742deb)"><path fill="#000000" d="M 384.824219 248.199219 C 384.917969 250.269531 385.007812 252.359375 385.089844 254.464844 C 374.0625 283.96875 363.097656 313.46875 367.03125 343.210938 C 366.371094 344.425781 365.699219 345.628906 365 346.808594 C 359.25 313.738281 372.648438 280.976562 384.824219 248.199219 " fill-opacity="1" fill-rule="nonzero"/></g><path fill="#000000" d="M 378.949219 205.015625 C 379.441406 206.757812 379.890625 208.511719 380.304688 210.285156 C 367.523438 261.136719 333.125 311.640625 352.722656 363.015625 C 352.117188 363.636719 351.503906 364.246094 350.878906 364.84375 C 328.988281 311.0625 367.222656 258.25 378.949219 205.015625 " fill-opacity="1" fill-rule="nonzero"/><path fill="#000000" d="M 327.378906 142.730469 C 328.511719 143.394531 329.628906 144.054688 330.714844 144.722656 C 360.214844 224.351562 260.898438 301.902344 314.523438 381.917969 C 313.730469 382.007812 312.925781 382.082031 312.117188 382.144531 C 257.652344 301.378906 359.296875 223.132812 327.378906 142.730469 " fill-opacity="1" fill-rule="nonzero"/><path fill="#000000" d="M 384.851562 274.742188 C 384.628906 278.277344 384.308594 281.890625 383.886719 285.546875 C 380.203125 297.402344 377.367188 309.269531 376.332031 321.167969 C 375.414062 324.015625 374.414062 326.832031 373.328125 329.597656 C 373.515625 311.253906 378.527344 292.988281 384.851562 274.742188 " fill-opacity="1" fill-rule="nonzero"/><path fill="#000000" d="M 372.058594 187.109375 C 372.804688 188.585938 373.507812 190.078125 374.167969 191.582031 C 366.714844 250.839844 317.597656 309.421875 345.75 369.253906 C 345.128906 369.738281 344.5 370.207031 343.863281 370.667969 C 313.476562 308.84375 366.578125 248.359375 372.058594 187.109375 " fill-opacity="1" fill-rule="nonzero"/><path fill="#000000" d="M 362.703125 172.363281 C 363.640625 173.5625 364.535156 174.773438 365.390625 175.996094 C 366.136719 242.183594 302.308594 307.332031 338.582031 374.09375 C 337.9375 374.46875 337.289062 374.835938 336.625 375.183594 C 298.328125 306.820312 365.914062 240.160156 362.703125 172.363281 " fill-opacity="1" fill-rule="nonzero"/><path fill="#000000" d="M 339.777344 150.738281 C 340.882812 151.53125 341.960938 152.328125 343.015625 153.132812 C 363.074219 229.304688 273.78125 303.71875 323.09375 380.363281 C 322.363281 380.550781 321.621094 380.722656 320.871094 380.882812 C 270.25 303.25 362.394531 227.917969 339.777344 150.738281 " fill-opacity="1" fill-rule="nonzero"/><path fill="#000000" d="M 351.707031 160.433594 C 352.753906 161.402344 353.765625 162.378906 354.746094 163.363281 C 365.023438 235.121094 287.640625 305.464844 331.074219 377.757812 C 330.390625 378.035156 329.699219 378.304688 329 378.558594 C 283.855469 305 364.589844 233.46875 351.707031 160.433594 " fill-opacity="1" fill-rule="nonzero"/><path fill="#000000" d="M 383.003906 225.660156 C 383.25 227.59375 383.464844 229.542969 383.660156 231.511719 C 369.683594 272.511719 348.429688 313.394531 359.691406 354.796875 C 359.082031 355.625 358.457031 356.4375 357.820312 357.238281 C 344.398438 313.027344 368.914062 269.429688 383.003906 225.660156 " fill-opacity="1" fill-rule="nonzero"/><path fill="#000000" d="M 214.230469 142.542969 C 215.882812 146.953125 217.140625 151.355469 218.046875 155.753906 C 214.199219 151.289062 213.089844 146.761719 214.230469 142.542969 " fill-opacity="1" fill-rule="nonzero"/><path fill="#000000" d="M 220.128906 133.96875 C 226.28125 146.355469 229.078125 158.691406 229.566406 170.984375 C 228.527344 169.203125 227.550781 167.613281 226.675781 166.226562 C 225.773438 156.054688 223.199219 145.859375 218.367188 135.625 C 218.90625 135.058594 219.496094 134.507812 220.128906 133.96875 " fill-opacity="1" fill-rule="nonzero"/><path fill="#000000" d="M 232.925781 126.945312 C 233.617188 126.699219 234.320312 126.457031 235.042969 126.230469 C 251.632812 153.113281 251.382812 179.726562 245.003906 206.242188 C 244.519531 204.617188 244.015625 203.019531 243.492188 201.457031 C 248.714844 176.761719 248.078125 151.972656 232.925781 126.945312 " fill-opacity="1" fill-rule="nonzero"/><path fill="#000000" d="M 225.300781 130.382812 C 225.9375 130.023438 226.597656 129.675781 227.277344 129.332031 C 238.554688 149.199219 240.851562 168.921875 238.511719 188.566406 C 237.808594 186.964844 237.097656 185.414062 236.390625 183.914062 C 237.824219 166.152344 235.191406 148.324219 225.300781 130.382812 " fill-opacity="1" fill-rule="nonzero"/><path fill="#cf0000" d="M 183.792969 361.734375 C 115.613281 325.261719 154.507812 257.523438 125.078125 199.070312 C 96.847656 142.996094 98.835938 123.890625 137.773438 85.453125 C 170.304688 53.339844 157.488281 0.125 199.371094 29.714844 C 215.089844 40.824219 243.292969 77.054688 245.363281 105.175781 C 249.976562 167.847656 276.773438 187.351562 303.050781 226.1875 C 318.171875 248.535156 328.480469 286.527344 307.304688 322.492188 C 285.53125 359.472656 224.191406 383.34375 183.792969 361.734375 " fill-opacity="1" fill-rule="nonzero"/></svg>