<svg xmlns="http://www.w3.org/2000/svg" xmlns:xlink="http://www.w3.org/1999/xlink" width="600" zoomAndPan="magnify" viewBox="0 0 450 455.999984" height="608" preserveAspectRatio="xMidYMid meet" version="1.0"><defs><clipPath id="f9fe834865"><path d="M 134 368 L 369 368 L 369 448.804688 L 134 448.804688 Z M 134 368 " clip-rule="nonzero"/></clipPath></defs><path fill="#cd0202" d="M 138.003906 295.546875 C 131.402344 297.664062 126.074219 299.632812 120.582031 301 C 118.179688 301.328125 115.804688 301.171875 113.457031 300.542969 C 112.980469 300.390625 112.523438 300.191406 112.085938 299.945312 C 111.652344 299.699219 111.242188 299.410156 110.867188 299.082031 C 110.492188 298.75 110.152344 298.382812 109.851562 297.980469 C 109.550781 297.582031 109.296875 297.152344 109.085938 296.699219 C 108.871094 296.246094 108.710938 295.773438 108.597656 295.285156 C 108.484375 294.796875 108.421875 294.304688 108.410156 293.800781 C 108.398438 293.300781 108.441406 292.804688 108.53125 292.3125 C 108.625 291.820312 108.765625 291.34375 108.957031 290.878906 C 110.742188 288.195312 112.816406 285.753906 115.175781 283.558594 C 135.621094 266.335938 156.144531 249.199219 176.75 232.152344 C 179.136719 229.929688 181.804688 228.125 184.753906 226.734375 C 190.101562 224.800781 195.1875 222.320312 200.007812 219.296875 C 204.828125 216.277344 209.269531 212.777344 213.339844 208.800781 C 214.601562 207.769531 215.980469 206.9375 217.484375 206.304688 C 264.421875 180.679688 263.007812 182.425781 305.726562 151.03125 C 311.601562 146.71875 317.503906 142.417969 323.648438 138.5 C 325.03125 137.640625 326.488281 136.933594 328.019531 136.382812 C 329.550781 135.828125 331.125 135.441406 332.738281 135.214844 C 334.351562 134.992188 335.96875 134.941406 337.59375 135.054688 C 339.21875 135.171875 340.8125 135.457031 342.378906 135.90625 C 343.175781 136.0625 343.960938 136.265625 344.738281 136.511719 C 345.511719 136.761719 346.265625 137.054688 347.007812 137.390625 C 347.746094 137.726562 348.464844 138.109375 349.15625 138.53125 C 349.851562 138.953125 350.519531 139.414062 351.160156 139.914062 C 351.800781 140.414062 352.410156 140.953125 352.984375 141.523438 C 353.5625 142.097656 354.101562 142.699219 354.609375 143.335938 C 355.113281 143.972656 355.582031 144.636719 356.007812 145.328125 C 356.433594 146.019531 356.820312 146.734375 357.164062 147.46875 C 357.503906 148.207031 357.804688 148.960938 358.058594 149.730469 C 358.3125 150.503906 358.519531 151.289062 358.679688 152.085938 C 358.839844 152.878906 358.957031 153.683594 359.023438 154.492188 C 359.089844 155.300781 359.105469 156.113281 359.078125 156.925781 C 359.046875 157.738281 358.972656 158.542969 358.847656 159.347656 C 358.722656 160.148438 358.550781 160.941406 358.332031 161.726562 C 358.117188 162.507812 357.851562 163.273438 357.542969 164.027344 C 357.234375 164.777344 356.882812 165.507812 356.488281 166.21875 C 354.671875 169.851562 352.40625 173.179688 349.699219 176.207031 C 346.484375 179.886719 342.847656 183.097656 338.792969 185.828125 C 321.035156 197.085938 304.21875 209.851562 285.457031 219.503906 C 267.453125 228.765625 249.324219 237.777344 231.378906 247.15625 C 224.207031 250.902344 217.394531 255.324219 210.40625 259.4375 C 197.84375 266.832031 185.199219 274.082031 172.738281 281.652344 C 167.441406 285.050781 161.875 287.917969 156.03125 290.253906 C 150.191406 292.589844 144.179688 294.355469 138.003906 295.546875 Z M 138.003906 295.546875 " fill-opacity="1" fill-rule="nonzero"/><g clip-path="url(#f9fe834865)"><path fill="#cd0202" d="M 134.289062 378.789062 C 135.589844 376.703125 136.355469 373.742188 138.082031 373 C 142.171875 371.195312 146.417969 369.917969 150.824219 369.175781 C 155.230469 368.429688 159.660156 368.238281 164.117188 368.601562 C 185.882812 370.484375 207.613281 372.765625 229.382812 374.589844 C 238.28125 375.371094 247.03125 376.953125 255.636719 379.332031 C 263.421875 381.4375 271.433594 382.730469 279.351562 384.34375 C 281.777344 384.527344 284.15625 384.964844 286.488281 385.652344 C 303.585938 393.269531 322.511719 394.804688 339.820312 401.753906 C 344.320312 403.585938 348.898438 405.246094 353.253906 407.382812 C 356.136719 408.871094 358.820312 410.660156 361.304688 412.75 C 362.09375 413.394531 362.824219 414.089844 363.503906 414.84375 C 364.1875 415.597656 364.804688 416.398438 365.363281 417.246094 C 365.921875 418.09375 366.414062 418.980469 366.835938 419.902344 C 367.257812 420.824219 367.609375 421.773438 367.890625 422.75 C 368.167969 423.726562 368.371094 424.71875 368.5 425.722656 C 368.628906 426.730469 368.679688 427.742188 368.652344 428.757812 C 368.625 429.769531 368.523438 430.777344 368.34375 431.777344 C 368.164062 432.777344 367.910156 433.753906 367.582031 434.714844 C 367.273438 435.578125 366.90625 436.417969 366.480469 437.226562 C 366.054688 438.039062 365.578125 438.820312 365.042969 439.5625 C 364.511719 440.308594 363.929688 441.015625 363.296875 441.679688 C 362.667969 442.34375 361.992188 442.960938 361.273438 443.53125 C 360.558594 444.105469 359.804688 444.625 359.015625 445.089844 C 358.226562 445.558594 357.410156 445.964844 356.5625 446.320312 C 355.71875 446.671875 354.851562 446.964844 353.964844 447.199219 C 353.078125 447.433594 352.179688 447.605469 351.269531 447.710938 C 346.414062 448.609375 341.625 448.335938 336.902344 446.894531 C 321.636719 441.484375 305.359375 439.976562 290.335938 433.472656 C 280.4375 429.871094 270.335938 426.976562 260.035156 424.78125 C 249.886719 422.007812 239.628906 419.570312 229.578125 416.480469 C 222.699219 414.0625 215.667969 412.246094 208.480469 411.023438 C 203.742188 410.015625 199.109375 408.65625 194.578125 406.953125 C 188.480469 404.847656 182.277344 403.113281 175.972656 401.75 C 169.230469 400.28125 162.71875 398.121094 156.4375 395.273438 C 150.152344 392.429688 144.234375 388.957031 138.6875 384.859375 C 136.847656 383.671875 135.910156 381.078125 134.289062 378.789062 Z M 134.289062 378.789062 " fill-opacity="1" fill-rule="nonzero"/></g><path fill="#ffde59" d="M 375.597656 301.695312 C 369.773438 303.5625 368.273438 304.199219 366.691406 304.527344 C 345.363281 308.953125 323.953125 313.070312 302.71875 317.824219 C 290.121094 320.636719 277.683594 324.207031 265.285156 327.8125 C 251.320312 331.875 237.5 336.394531 223.578125 340.625 C 219.765625 341.988281 215.851562 342.917969 211.832031 343.414062 C 207.8125 343.675781 203.863281 343.269531 199.984375 342.191406 C 199.546875 342.074219 199.113281 341.925781 198.695312 341.75 C 198.273438 341.574219 197.863281 341.375 197.46875 341.144531 C 197.074219 340.917969 196.695312 340.664062 196.332031 340.386719 C 195.96875 340.109375 195.628906 339.8125 195.304688 339.492188 C 194.980469 339.167969 194.679688 338.828125 194.398438 338.46875 C 194.121094 338.109375 193.863281 337.730469 193.632812 337.335938 C 193.402344 336.945312 193.199219 336.539062 193.019531 336.117188 C 192.84375 335.699219 192.691406 335.269531 192.570312 334.828125 C 192.445312 334.390625 192.351562 333.945312 192.289062 333.496094 C 192.222656 333.042969 192.1875 332.589844 192.179688 332.132812 C 192.175781 331.675781 192.199219 331.222656 192.25 330.769531 C 192.304688 330.316406 192.382812 329.871094 192.496094 329.425781 C 192.605469 328.984375 192.742188 328.550781 192.910156 328.128906 C 193.078125 327.703125 193.269531 327.289062 193.492188 326.890625 C 193.710938 326.492188 193.957031 326.109375 194.226562 325.742188 C 194.496094 325.371094 194.785156 325.023438 195.101562 324.695312 C 197.152344 322.203125 199.515625 320.046875 202.183594 318.230469 C 207.605469 314.734375 213.253906 311.570312 218.929688 308.46875 C 229.902344 303.269531 240.167969 296.921875 249.722656 289.433594 C 251.945312 287.675781 254.359375 286.246094 256.972656 285.148438 C 259.582031 284.046875 262.292969 283.3125 265.101562 282.945312 C 295.726562 278.5 324.375 267.1875 353.714844 258.308594 C 360.671875 256.203125 367.5625 253.804688 374.621094 252.152344 C 375.699219 251.859375 376.792969 251.65625 377.902344 251.542969 C 379.015625 251.429688 380.125 251.40625 381.242188 251.472656 C 382.355469 251.539062 383.457031 251.695312 384.546875 251.941406 C 385.632812 252.1875 386.695312 252.519531 387.730469 252.9375 C 388.765625 253.355469 389.761719 253.855469 390.714844 254.4375 C 391.667969 255.015625 392.566406 255.671875 393.414062 256.398438 C 394.261719 257.125 395.042969 257.914062 395.761719 258.769531 C 396.480469 259.621094 397.125 260.527344 397.695312 261.488281 C 398.292969 262.421875 398.824219 263.394531 399.28125 264.40625 C 399.738281 265.414062 400.117188 266.453125 400.421875 267.519531 C 400.726562 268.585938 400.953125 269.671875 401.097656 270.769531 C 401.242188 271.871094 401.304688 272.976562 401.289062 274.085938 C 401.273438 275.195312 401.175781 276.296875 400.996094 277.390625 C 400.816406 278.484375 400.558594 279.5625 400.222656 280.617188 C 399.882812 281.675781 399.472656 282.703125 398.984375 283.699219 C 398.496094 284.695312 397.9375 285.652344 397.308594 286.566406 C 395.765625 288.957031 393.929688 291.101562 391.808594 293 C 389.691406 294.902344 387.355469 296.492188 384.8125 297.765625 C 380.496094 299.925781 375.910156 301.5625 375.597656 301.695312 Z M 375.597656 301.695312 " fill-opacity="1" fill-rule="nonzero"/><path fill="#ffde59" d="M 110.949219 238.800781 C 110.414062 237.289062 110.125 235.730469 110.082031 234.128906 C 110.585938 229.28125 111.601562 224.542969 113.128906 219.910156 C 114.65625 215.28125 116.664062 210.867188 119.144531 206.671875 C 128.246094 192.371094 137.183594 177.925781 147.050781 164.164062 C 159.769531 146.429688 173.230469 129.226562 186.566406 111.945312 C 193.0625 103.679688 198.984375 95.023438 204.332031 85.972656 C 208.910156 78.351562 214.117188 71.191406 219.964844 64.496094 C 220.480469 63.863281 221.042969 63.277344 221.648438 62.730469 C 222.253906 62.183594 222.894531 61.683594 223.574219 61.230469 C 224.253906 60.777344 224.960938 60.375 225.699219 60.027344 C 226.433594 59.675781 227.195312 59.382812 227.972656 59.144531 C 228.753906 58.90625 229.546875 58.726562 230.355469 58.605469 C 231.160156 58.484375 231.972656 58.417969 232.789062 58.417969 C 233.605469 58.414062 234.414062 58.46875 235.222656 58.585938 C 236.03125 58.699219 236.824219 58.875 237.609375 59.105469 C 239.398438 59.503906 241.105469 60.128906 242.726562 60.988281 C 244.347656 61.847656 245.824219 62.90625 247.160156 64.167969 C 248.492188 65.429688 249.632812 66.84375 250.582031 68.414062 C 251.53125 69.980469 252.253906 71.648438 252.75 73.414062 C 253.46875 75.753906 253.8125 78.148438 253.78125 80.597656 C 253.746094 83.046875 253.339844 85.433594 252.554688 87.753906 C 251.367188 91.632812 249.726562 95.3125 247.628906 98.785156 C 240.226562 111.324219 232.085938 123.367188 223.207031 134.90625 C 212.480469 149.117188 200.613281 162.300781 187.605469 174.457031 C 177.191406 183.640625 168.496094 194.234375 161.519531 206.238281 C 159.21875 210.046875 156.492188 213.527344 153.347656 216.679688 C 150.207031 219.828125 146.734375 222.5625 142.929688 224.878906 C 136.789062 228.710938 131.371094 233.6875 125.546875 238.050781 C 123.597656 239.4375 121.5625 240.679688 119.441406 241.785156 C 118.667969 242 117.875 242.09375 117.070312 242.066406 C 116.269531 242.039062 115.484375 241.894531 114.726562 241.625 C 113.96875 241.359375 113.265625 240.984375 112.621094 240.503906 C 111.976562 240.023438 111.417969 239.453125 110.949219 238.800781 Z M 110.949219 238.800781 " fill-opacity="1" fill-rule="nonzero"/><path fill="#cd0202" d="M 85.160156 178.34375 C 84.328125 176.648438 83.679688 174.890625 83.207031 173.066406 C 82.742188 169.453125 82.6875 165.835938 83.035156 162.210938 C 83.386719 158.585938 84.136719 155.042969 85.28125 151.585938 C 88.550781 142.464844 91.113281 133.148438 92.96875 123.636719 C 99.039062 91.851562 108.089844 60.9375 120.121094 30.894531 C 122.25 25.644531 124.800781 20.609375 127.769531 15.785156 C 128.1875 15.09375 128.65625 14.4375 129.175781 13.816406 C 129.695312 13.195312 130.257812 12.617188 130.867188 12.082031 C 131.472656 11.546875 132.117188 11.0625 132.800781 10.625 C 133.480469 10.191406 134.191406 9.808594 134.933594 9.480469 C 135.671875 9.152344 136.433594 8.882812 137.214844 8.671875 C 137.996094 8.460938 138.789062 8.3125 139.59375 8.222656 C 140.398438 8.132812 141.207031 8.101562 142.015625 8.136719 C 142.824219 8.171875 143.625 8.265625 144.417969 8.421875 C 145.621094 8.589844 146.804688 8.851562 147.964844 9.210938 C 149.125 9.570312 150.246094 10.015625 151.335938 10.554688 C 152.425781 11.09375 153.464844 11.714844 154.453125 12.417969 C 155.441406 13.121094 156.367188 13.898438 157.230469 14.75 C 158.097656 15.605469 158.886719 16.519531 159.605469 17.5 C 160.324219 18.476562 160.957031 19.507812 161.511719 20.585938 C 162.0625 21.667969 162.527344 22.785156 162.898438 23.941406 C 163.273438 25.09375 163.550781 26.269531 163.738281 27.46875 C 164.46875 31.070312 164.605469 34.6875 164.140625 38.332031 C 163.679688 41.972656 162.640625 45.445312 161.03125 48.746094 C 150.910156 68.144531 144.113281 88.882812 135.957031 109.070312 C 134.839844 112.117188 133.371094 114.980469 131.554688 117.667969 C 125.832031 125.601562 121.65625 134.28125 119.019531 143.699219 C 117.914062 147.605469 116.277344 151.28125 114.121094 154.722656 C 111.960938 158.164062 109.363281 161.238281 106.328125 163.9375 C 100.972656 168.757812 96.375 174.417969 90.996094 179.191406 C 89.984375 180.105469 86.863281 178.640625 85.160156 178.34375 Z M 85.160156 178.34375 " fill-opacity="1" fill-rule="nonzero"/></svg>