<svg xmlns="http://www.w3.org/2000/svg" xmlns:xlink="http://www.w3.org/1999/xlink" width="600" zoomAndPan="magnify" viewBox="0 0 450 455.999984" height="608" preserveAspectRatio="xMidYMid meet" version="1.0"><path fill="#dc1f26" d="M 324.582031 280.355469 C 322.5 277.523438 319.992188 275.011719 317.855469 272.125 C 315.570312 268.8125 313.789062 265.253906 312.511719 261.4375 C 311.210938 257.535156 310.605469 253.527344 310.695312 249.417969 C 310.871094 243.953125 311.761719 238.609375 313.367188 233.386719 C 314.382812 229.765625 315.574219 226.203125 316.945312 222.699219 C 319.632812 216.542969 322.960938 210.753906 326.933594 205.335938 C 329.574219 201.617188 332.851562 198.589844 336.761719 196.25 C 338.019531 195.410156 339.195312 194.46875 340.285156 193.417969 C 343.453125 190.773438 347.011719 188.867188 350.96875 187.703125 C 353.695312 186.847656 356.3125 185.886719 358.980469 184.871094 C 360.703125 184.230469 362.484375 183.910156 364.324219 183.910156 C 362.492188 179.292969 360.265625 174.875 357.644531 170.65625 C 347.921875 154.878906 336.171875 140.789062 322.394531 128.390625 C 310.484375 117.332031 298.25 106.109375 282.65625 99.804688 C 272.613281 95.746094 262.199219 92.644531 252.210938 88.636719 C 246.226562 86.175781 240.054688 84.363281 233.691406 83.191406 C 227.328125 82.019531 220.914062 81.519531 214.445312 81.691406 C 209.105469 81.691406 203.765625 81.691406 198.421875 81.691406 C 194.898438 81.691406 191.371094 81.691406 187.742188 81.691406 C 180.664062 81.394531 173.683594 82.089844 166.800781 83.777344 C 155.605469 87.199219 144.726562 91.4375 134.167969 96.492188 C 121.882812 102.828125 110.59375 110.609375 100.304688 119.84375 C 88.398438 131.011719 77.714844 143.246094 68.257812 156.550781 C 64.296875 161.34375 61.023438 166.566406 58.433594 172.21875 C 55.84375 177.871094 54.023438 183.761719 52.980469 189.894531 C 52.894531 191.125 52.589844 192.300781 52.070312 193.417969 C 50.324219 196.980469 49.03125 200.699219 48.191406 204.578125 C 47.351562 208.453125 46.988281 212.375 47.105469 216.339844 C 47.105469 220.992188 47.480469 225.691406 47.105469 230.339844 C 45.875 257.058594 57.144531 278.429688 73.8125 298.359375 C 80.59375 306.589844 87.378906 314.871094 93.414062 323.632812 C 95.429688 326.679688 97.796875 329.421875 100.507812 331.867188 C 103.222656 334.308594 106.199219 336.375 109.4375 338.058594 C 113.609375 339.792969 117.5625 341.929688 121.296875 344.472656 C 123.402344 346.453125 125.664062 348.230469 128.085938 349.808594 C 130.507812 351.386719 133.050781 352.738281 135.710938 353.863281 C 138.371094 354.988281 141.113281 355.871094 143.929688 356.511719 C 146.75 357.152344 149.601562 357.539062 152.488281 357.671875 C 153.5 357.730469 154.480469 357.945312 155.425781 358.3125 C 166.402344 362.140625 177.691406 364.4375 189.289062 365.203125 C 198.582031 365.523438 207.503906 368.730469 217.0625 367.714844 C 225.503906 366.808594 234.210938 367.714844 242.273438 364.347656 C 243 364.082031 243.746094 363.921875 244.519531 363.867188 C 263.105469 362.160156 278.273438 353.183594 292.589844 342.496094 C 302.203125 335.773438 311.355469 328.472656 320.042969 320.589844 C 328.335938 313.195312 335.8125 305.058594 342.476562 296.167969 C 335.679688 291.84375 329.714844 286.570312 324.582031 280.355469 Z M 324.582031 280.355469 " fill-opacity="1" fill-rule="nonzero"/><path fill="#fcc398" d="M 429.699219 247.226562 C 429.226562 239.984375 428.050781 232.859375 426.175781 225.851562 C 425.863281 224.773438 425.46875 223.722656 425 222.699219 C 423.71875 219.976562 422.4375 217.355469 421.046875 214.523438 C 420.308594 213.15625 419.492188 211.839844 418.589844 210.570312 C 417.964844 209.417969 417.21875 208.347656 416.347656 207.363281 C 413.355469 204.425781 410.257812 201.542969 407.160156 198.710938 C 406.289062 197.988281 405.363281 197.347656 404.382812 196.785156 L 401.5 195.074219 L 398.347656 193.3125 C 397.414062 192.871094 396.523438 192.355469 395.675781 191.761719 C 394.160156 190.378906 392.382812 189.613281 390.335938 189.464844 C 389.5 189.277344 388.699219 188.992188 387.929688 188.609375 C 384.433594 187.261719 380.871094 186.105469 377.25 185.136719 C 373.777344 184.390625 370.144531 184.28125 366.566406 183.855469 L 364.214844 183.855469 C 366.863281 190.527344 368.601562 197.429688 369.425781 204.558594 C 370.25 211.691406 370.132812 218.804688 369.078125 225.90625 C 367.453125 237.433594 364.652344 248.664062 360.675781 259.605469 C 356.695312 270.542969 351.628906 280.949219 345.46875 290.828125 C 344.398438 292.644531 343.226562 294.40625 341.996094 296.167969 L 342.636719 296.652344 C 345.535156 298.890625 348.773438 300.386719 352.359375 301.140625 C 356.375 302.273438 360.453125 303.128906 364.589844 303.703125 C 374.152344 304.535156 383.535156 303.59375 392.738281 300.871094 C 393.101562 300.730469 393.472656 300.644531 393.859375 300.605469 C 399.242188 299.664062 404.171875 297.632812 408.65625 294.511719 C 412.523438 291.597656 415.875 288.175781 418.714844 284.25 C 421.554688 280.324219 423.757812 276.070312 425.320312 271.484375 C 426.410156 268.796875 427.265625 266.035156 427.882812 263.203125 C 429.25 257.960938 429.855469 252.636719 429.699219 247.226562 Z M 429.699219 247.226562 " fill-opacity="1" fill-rule="nonzero"/><path fill="#f8991d" d="M 369.503906 225.960938 C 370.5625 218.859375 370.675781 211.742188 369.851562 204.613281 C 369.027344 197.480469 367.292969 190.578125 364.644531 183.910156 C 362.804688 183.910156 361.023438 184.230469 359.300781 184.871094 C 356.683594 185.886719 353.960938 186.847656 351.289062 187.703125 C 347.332031 188.867188 343.773438 190.773438 340.609375 193.417969 C 339.515625 194.46875 338.339844 195.410156 337.082031 196.25 C 333.171875 198.589844 329.894531 201.617188 327.253906 205.335938 C 323.28125 210.753906 319.953125 216.542969 317.265625 222.699219 C 315.894531 226.203125 314.703125 229.765625 313.6875 233.386719 C 312.082031 238.609375 311.191406 243.953125 311.015625 249.417969 C 310.929688 255.417969 312.15625 261.132812 314.703125 266.566406 C 315.597656 268.441406 316.648438 270.222656 317.855469 271.910156 C 319.992188 274.742188 322.5 277.253906 324.582031 280.140625 C 329.679688 286.429688 335.628906 291.773438 342.421875 296.167969 C 343.652344 294.460938 344.828125 292.695312 345.894531 290.828125 C 352.050781 280.957031 357.117188 270.558594 361.097656 259.628906 C 365.074219 248.699219 367.875 237.476562 369.503906 225.960938 Z M 369.503906 225.960938 " fill-opacity="1" fill-rule="nonzero"/><path fill="#f8ba34" d="M 97.097656 102.851562 L 95.175781 104.027344 L 86.417969 109.371094 C 84.847656 110.304688 83.335938 111.320312 81.875 112.414062 C 77.59375 115.710938 73.074219 118.632812 68.308594 121.179688 L 56.132812 128.339844 C 55.011719 128.980469 54.207031 129.996094 52.820312 130.207031 C 51.484375 130.480469 50.148438 130.480469 48.8125 130.207031 L 34.714844 127.539062 L 33.109375 127.539062 C 30.921875 127.539062 30.121094 126.683594 29.585938 124.597656 C 29.492188 124.179688 29.46875 123.757812 29.519531 123.332031 C 29.566406 122.90625 29.679688 122.5 29.867188 122.113281 C 30.050781 121.726562 30.292969 121.378906 30.589844 121.070312 C 30.890625 120.765625 31.230469 120.515625 31.613281 120.324219 L 40 114.980469 C 42.082031 113.644531 44.113281 112.203125 46.195312 110.8125 C 49.882812 108.355469 53.675781 105.949219 57.304688 103.386719 C 60.9375 100.820312 64.089844 98.042969 67.613281 95.636719 C 72.421875 91.980469 77.425781 88.613281 82.625 85.539062 C 84.25 84.589844 85.765625 83.488281 87.164062 82.226562 C 87.734375 81.726562 88.386719 81.378906 89.117188 81.183594 C 89.847656 80.988281 90.585938 80.960938 91.332031 81.105469 L 108.582031 84.257812 C 109.597656 84.335938 110.613281 84.335938 111.628906 84.257812 C 112.386719 84.300781 113.074219 84.539062 113.699219 84.972656 C 114.324219 85.40625 114.789062 85.96875 115.097656 86.660156 C 118.304688 92.59375 121.5625 98.46875 124.660156 104.453125 C 126.15625 107.285156 127.332031 110.226562 128.664062 113.058594 C 130 115.890625 131.015625 117.917969 132.136719 120.378906 C 133.847656 123.902344 135.289062 127.539062 137.480469 131.0625 C 139.976562 136.378906 142.804688 141.507812 145.972656 146.453125 C 146.933594 147.734375 147.679688 149.125 148.535156 150.511719 C 149.390625 151.902344 148.535156 153.292969 147.839844 154.46875 C 147.710938 154.726562 147.542969 154.960938 147.335938 155.167969 C 147.132812 155.375 146.898438 155.546875 146.640625 155.679688 C 146.382812 155.816406 146.109375 155.90625 145.820312 155.953125 C 145.535156 156.003906 145.246094 156.003906 144.957031 155.964844 C 138.707031 155.480469 132.457031 154.894531 126.207031 154.519531 C 125.699219 154.515625 125.207031 154.433594 124.722656 154.269531 C 124.242188 154.105469 123.800781 153.867188 123.394531 153.558594 C 122.992188 153.25 122.644531 152.886719 122.359375 152.464844 C 122.074219 152.046875 121.859375 151.589844 121.722656 151.101562 C 119.851562 146.667969 118.25 142.179688 116.382812 137.851562 C 114.9375 134.589844 113.175781 131.4375 111.46875 128.285156 C 109.757812 125.132812 108.53125 122.941406 107.085938 120.324219 L 103.242188 113.429688 C 102.625 112.046875 101.679688 110.945312 100.410156 110.117188 C 99.9375 109.644531 99.691406 109.074219 99.664062 108.410156 C 99.066406 106.4375 98.210938 104.585938 97.097656 102.851562 Z M 97.097656 102.851562 " fill-opacity="1" fill-rule="nonzero"/><path fill="#f8ba34" d="M 89.675781 175.734375 C 89 175.980469 88.339844 176.265625 87.699219 176.589844 C 83.800781 178.832031 79.847656 181.023438 75.949219 183.320312 C 74.023438 184.441406 72.207031 185.726562 70.339844 186.953125 L 59.65625 193.632812 C 56.238281 195.769531 52.925781 198.066406 49.453125 200.152344 C 45.984375 202.234375 43.472656 203.519531 40.535156 205.496094 C 39.179688 206.25 37.933594 207.160156 36.796875 208.21875 C 36.390625 208.613281 35.933594 208.933594 35.421875 209.171875 C 34.910156 209.410156 34.371094 209.558594 33.808594 209.617188 C 33.246094 209.675781 32.691406 209.640625 32.140625 209.511719 C 31.589844 209.382812 31.078125 209.164062 30.601562 208.859375 C 27.222656 207.511719 23.75 206.476562 20.183594 205.761719 C 18.316406 205.230469 16.410156 204.910156 14.46875 204.800781 C 14.027344 204.75 13.605469 204.636719 13.195312 204.464844 C 12.785156 204.292969 12.410156 204.066406 12.066406 203.789062 C 11.71875 203.507812 11.421875 203.1875 11.167969 202.824219 C 10.914062 202.460938 10.714844 202.066406 10.570312 201.648438 C 10.316406 201.023438 10.179688 200.375 10.160156 199.703125 C 10.140625 199.03125 10.238281 198.375 10.453125 197.738281 C 10.667969 197.101562 10.988281 196.519531 11.414062 195.996094 C 11.839844 195.476562 12.339844 195.042969 12.921875 194.703125 C 15.238281 193.46875 17.449219 192.0625 19.542969 190.480469 C 26.367188 186.148438 32.953125 181.480469 39.304688 176.480469 C 40.535156 175.574219 41.976562 174.878906 43.207031 173.96875 C 46.035156 171.886719 48.546875 169.695312 51.589844 167.613281 C 53.355469 166.277344 55.222656 165.046875 56.933594 163.765625 C 58.640625 162.480469 60.191406 161.144531 61.898438 159.972656 L 76 150.085938 C 76.925781 149.339844 77.796875 148.539062 78.617188 147.679688 C 79.3125 147.039062 80.007812 146.398438 80.753906 145.8125 C 81.203125 145.488281 81.703125 145.292969 82.25 145.214844 C 82.796875 145.140625 83.332031 145.195312 83.851562 145.382812 L 87.269531 146.558594 C 90.261719 147.507812 93.324219 147.917969 96.457031 147.789062 C 96.960938 147.773438 97.460938 147.800781 97.960938 147.875 C 98.457031 147.945312 98.945312 148.0625 99.425781 148.21875 C 99.902344 148.375 100.363281 148.570312 100.808594 148.808594 C 101.253906 149.042969 101.671875 149.316406 102.070312 149.628906 C 102.46875 149.9375 102.835938 150.28125 103.171875 150.652344 C 103.507812 151.027344 103.8125 151.425781 104.082031 151.851562 C 104.347656 152.277344 104.578125 152.726562 104.769531 153.191406 C 104.960938 153.65625 105.109375 154.136719 105.21875 154.628906 C 105.875 157.605469 106.855469 160.472656 108.15625 163.230469 C 108.636719 164.460938 109.0625 165.742188 109.597656 166.96875 L 111.894531 171.457031 C 114.566406 176.800781 117.234375 182.574219 119.90625 187.96875 C 122.578125 193.367188 124.339844 198.226562 126.957031 203.199219 L 130.480469 210.035156 C 132.511719 214.152344 135.394531 217.730469 137.105469 222.058594 C 137.597656 223.167969 138.308594 224.113281 139.242188 224.890625 C 139.5 225.121094 139.730469 225.375 139.933594 225.65625 C 140.136719 225.933594 140.308594 226.230469 140.449219 226.546875 C 140.589844 226.863281 140.695312 227.1875 140.765625 227.527344 C 140.839844 227.863281 140.875 228.207031 140.875 228.550781 C 140.875 228.894531 140.839844 229.238281 140.765625 229.574219 C 140.695312 229.914062 140.589844 230.238281 140.449219 230.554688 C 140.308594 230.871094 140.136719 231.167969 139.933594 231.445312 C 139.730469 231.726562 139.5 231.980469 139.242188 232.210938 C 138.097656 233.441406 136.691406 234.15625 135.023438 234.347656 C 134.628906 234.457031 134.238281 234.457031 133.847656 234.347656 C 130.359375 233.3125 126.796875 232.691406 123.164062 232.476562 L 112.480469 230.660156 C 111.746094 230.492188 111.160156 230.101562 110.71875 229.484375 C 110.09375 228.664062 109.738281 227.738281 109.652344 226.707031 C 109.296875 222.988281 108.355469 219.425781 106.820312 216.019531 C 106.019531 213.832031 104.628906 211.851562 103.667969 209.664062 C 102.121094 205.976562 100.785156 202.128906 99.183594 198.441406 C 97.578125 194.753906 95.65625 191.015625 93.839844 187.273438 C 92.023438 183.535156 91.171875 180.757812 89.886719 177.550781 Z M 89.675781 175.734375 " fill-opacity="1" fill-rule="nonzero"/><path fill="#f8ba34" d="M 72.316406 239.210938 L 69.699219 240.867188 L 52.605469 253.050781 C 51.484375 253.851562 50.523438 254.867188 49.453125 255.613281 C 45.984375 258.125 42.511719 260.476562 39.09375 262.988281 C 37.90625 263.878906 36.839844 264.894531 35.886719 266.035156 C 35.699219 266.273438 35.488281 266.488281 35.253906 266.679688 C 35.015625 266.867188 34.761719 267.03125 34.488281 267.164062 C 34.214844 267.296875 33.929688 267.398438 33.636719 267.464844 C 33.339844 267.53125 33.039062 267.566406 32.738281 267.566406 C 32.433594 267.566406 32.132812 267.53125 31.835938 267.464844 C 31.542969 267.398438 31.257812 267.296875 30.984375 267.164062 C 30.710938 267.03125 30.457031 266.867188 30.222656 266.679688 C 29.984375 266.488281 29.773438 266.273438 29.585938 266.035156 C 28.652344 265.144531 27.546875 264.613281 26.273438 264.429688 C 23.601562 263.734375 20.933594 263.042969 18.367188 262.132812 C 18.0625 261.992188 17.777344 261.828125 17.503906 261.632812 C 17.230469 261.441406 16.976562 261.222656 16.746094 260.980469 C 16.511719 260.738281 16.304688 260.480469 16.121094 260.199219 C 15.9375 259.917969 15.785156 259.625 15.65625 259.3125 C 15.527344 259.003906 15.429688 258.683594 15.363281 258.359375 C 15.292969 258.03125 15.257812 257.699219 15.253906 257.363281 C 15.246094 257.027344 15.273438 256.695312 15.328125 256.367188 C 15.386719 256.035156 15.472656 255.714844 15.589844 255.402344 C 15.835938 254.917969 16.191406 254.542969 16.660156 254.277344 L 23.390625 250.539062 C 27.824219 247.972656 32.417969 245.460938 36.742188 242.628906 C 41.070312 239.796875 44.699219 236.644531 48.707031 233.652344 L 56.078125 228.042969 L 57.679688 226.816406 C 61.527344 223.609375 65.371094 220.402344 69.21875 217.304688 C 70.554688 216.234375 71.941406 215.328125 73.332031 214.363281 C 73.6875 214.089844 74.09375 213.921875 74.542969 213.863281 C 74.992188 213.808594 75.425781 213.867188 75.839844 214.042969 L 81.769531 216.554688 C 82.402344 216.890625 82.945312 217.339844 83.402344 217.894531 C 83.855469 218.449219 84.183594 219.074219 84.386719 219.761719 C 85.507812 222.164062 86.578125 224.570312 87.539062 226.976562 C 88.125 228.472656 88.394531 230.074219 88.925781 231.625 C 89.460938 233.171875 90.15625 235.148438 90.851562 236.964844 L 95.175781 248.507812 C 95.765625 250.003906 96.457031 251.445312 97.097656 252.941406 C 97.738281 254.4375 98.167969 255.5625 98.648438 256.898438 C 100.410156 261.4375 102.011719 266.085938 103.988281 270.628906 C 105.277344 273.425781 106.699219 276.152344 108.261719 278.804688 C 109.199219 280.300781 109.539062 281.921875 109.277344 283.667969 C 109.28125 283.917969 109.257812 284.164062 109.203125 284.40625 C 109.148438 284.652344 109.066406 284.882812 108.953125 285.109375 C 108.84375 285.332031 108.707031 285.539062 108.546875 285.730469 C 108.386719 285.921875 108.203125 286.089844 108.003906 286.238281 C 107.800781 286.382812 107.582031 286.503906 107.351562 286.597656 C 107.121094 286.695312 106.882812 286.757812 106.636719 286.796875 C 106.386719 286.832031 106.140625 286.839844 105.890625 286.816406 C 105.644531 286.792969 105.398438 286.742188 105.164062 286.660156 C 102.8125 286.230469 100.464844 285.589844 98.113281 285.003906 C 94.160156 283.933594 90.15625 282.863281 86.257812 281.6875 C 85.628906 281.507812 85.046875 281.230469 84.511719 280.851562 C 83.976562 280.472656 83.523438 280.015625 83.144531 279.480469 C 82.765625 278.945312 82.484375 278.367188 82.304688 277.734375 C 82.125 277.105469 82.050781 276.464844 82.089844 275.8125 C 81.972656 271.339844 81.167969 266.996094 79.6875 262.773438 C 78.9375 259.996094 78.191406 257.429688 77.550781 254.386719 C 76.65625 250.074219 75.355469 245.890625 73.652344 241.828125 Z M 72.316406 239.210938 " fill-opacity="1" fill-rule="nonzero"/></svg>