<svg xmlns="http://www.w3.org/2000/svg" xmlns:xlink="http://www.w3.org/1999/xlink" width="600" zoomAndPan="magnify" viewBox="0 0 450 455.999984" height="608" preserveAspectRatio="xMidYMid meet" version="1.0"><path fill="#ed3c26" d="M 50.082031 123.832031 C 51.066406 123.554688 52.359375 121.972656 53.859375 121.578125 C 61.109375 119.652344 70.945312 119.636719 80.265625 120.929688 C 86.632812 121.816406 92.792969 123.265625 97.816406 125.265625 C 100.867188 126.480469 103.5625 127.550781 104.90625 129.21875 C 134.363281 166.148438 134.363281 214.097656 152.949219 251.875 C 158.335938 262.773438 164.960938 272.972656 174.019531 282.003906 C 183.859375 291.976562 195.972656 296.855469 209.484375 298.636719 C 234.4375 301.917969 264.671875 293.472656 291.851562 289.59375 C 308.675781 287.195312 324.105469 286.171875 334.925781 294.554688 C 339.636719 298.210938 342.535156 303.347656 345.019531 308.789062 C 349.992188 319.660156 352.890625 331.910156 357.601562 341.789062 C 360.757812 348.125 368.472656 350.695312 374.789062 347.527344 C 381.15625 344.359375 383.746094 336.640625 380.535156 330.300781 C 374.582031 318.90625 370.90625 304.1875 363.710938 292.328125 C 359.828125 285.921875 355.167969 280.1875 349.007812 275.761719 C 333.421875 264.472656 311.992188 264.070312 288.488281 268.132812 C 263.171875 272.5 235.214844 281.773438 211.867188 279.164062 C 202.703125 278.132812 194.316406 275.109375 187.585938 268.449219 C 180.128906 260.972656 174.539062 252.566406 170.191406 243.503906 C 151.398438 204.09375 152.175781 154.484375 122.613281 115.476562 C 118.886719 110.523438 111.429688 105.742188 101.902344 102.277344 C 87.875 97.175781 68.875 94.691406 54.378906 96.355469 C 34.914062 98.578125 23.628906 109.433594 24.457031 123.835938 C 25.023438 130.902344 31.238281 136.1875 38.277344 135.632812 C 44.699219 135.128906 49.617188 130.027344 50.082031 123.832031 Z M 50.082031 123.832031 " fill-opacity="1" fill-rule="evenodd"/><path fill="#037095" d="M 122.921875 71.957031 C 123.285156 71.746094 123.699219 71.257812 124.113281 71.140625 C 125.460938 70.75 126.960938 70.480469 128.566406 70.375 C 137.316406 69.777344 148.652344 71.847656 160.144531 74.984375 C 182.976562 81.230469 206.429688 91.269531 210.777344 95.402344 C 218.078125 102.375 220.820312 113.3125 223.046875 125.351562 C 226.570312 144.804688 228.226562 166.878906 236.25 184.996094 C 240.132812 193.769531 245.363281 201.703125 252.765625 208.238281 C 270.78125 224.367188 293.042969 224.449219 315.925781 220.453125 C 334.667969 217.1875 353.71875 210.84375 369.921875 212.703125 C 385.765625 214.527344 396.117188 226.785156 400.984375 260.402344 C 402.175781 267.390625 408.800781 272.125 415.792969 270.957031 C 422.78125 269.789062 427.492188 263.167969 426.351562 256.179688 C 420.191406 223.460938 408.800781 206.433594 395.546875 197.929688 C 378.464844 187.007812 356.929688 189.453125 334.304688 194.914062 C 321.722656 197.949219 308.730469 201.703125 296.304688 202.496094 C 285.226562 203.199219 274.613281 201.554688 265.449219 193.722656 C 260.167969 189.140625 256.441406 183.523438 253.695312 177.308594 C 246.34375 160.5625 245.464844 140.027344 242.566406 121.996094 C 239.875 105.222656 235.316406 90.421875 225.480469 80.445312 C 218.855469 73.710938 173.761719 51.597656 141.5625 46.753906 C 130.636719 45.117188 121.058594 45.636719 114.070312 48.152344 C 104.542969 51.605469 98.746094 58.503906 97.402344 69.140625 C 96.675781 76.191406 101.800781 82.511719 108.839844 83.257812 C 115.832031 83.992188 122.148438 78.941406 122.921875 71.957031 Z M 122.921875 71.957031 " fill-opacity="1" fill-rule="evenodd"/><path fill="#f56a41" d="M 33.566406 218.925781 C 40.246094 220.582031 52.359375 208.070312 54.742188 207.632812 C 59.761719 206.695312 65.714844 206.664062 71.773438 207.355469 C 80.472656 208.355469 89.324219 210.632812 95.742188 213.820312 C 98.175781 215.027344 100.351562 216.03125 101.386719 217.503906 C 111.378906 232.160156 113.191406 249.199219 113.863281 266.65625 C 114.589844 286.488281 113.96875 306.816406 118.78125 325.808594 C 122.976562 342.464844 131.050781 358.210938 147.460938 371.933594 C 157.351562 380.378906 169.15625 381.910156 182.40625 379.460938 C 198.664062 376.453125 217.558594 366.488281 236.871094 360.3125 C 251.9375 355.503906 267.363281 353.046875 281.496094 362.253906 C 285.585938 364.921875 289.882812 368.304688 293.457031 372.222656 C 296.253906 375.300781 298.582031 378.769531 299.410156 382.609375 C 301.171875 389.484375 308.109375 393.664062 314.992188 391.945312 C 321.878906 390.226562 326.070312 383.25 324.363281 376.382812 C 322.605469 369.894531 319.1875 363.8125 314.578125 358.464844 C 308.78125 351.742188 301.273438 346.039062 294.234375 341.84375 C 283.359375 335.347656 272.230469 332.847656 260.945312 333.128906 C 237.800781 333.691406 214.089844 346.660156 192.96875 355.070312 C 180.285156 360.121094 168.894531 364.320312 159.886719 357.015625 C 147.046875 346.390625 140.527344 334.183594 137.367188 321.183594 C 132.136719 299.667969 135.039062 276.328125 133.742188 254.203125 C 132.761719 236.925781 129.394531 220.34375 119.867188 205.320312 C 117.019531 200.773438 111.273438 196.144531 103.5625 192.371094 C 93.15625 187.261719 78.761719 183.570312 65.613281 182.734375 C 53.914062 181.976562 43.195312 183.933594 36.050781 188.0625 C 29.941406 191.605469 26.007812 196.832031 24.195312 203.367188 C 22.488281 210.246094 26.679688 217.21875 33.566406 218.925781 Z M 33.566406 218.925781 " fill-opacity="1" fill-rule="evenodd"/></svg>