<svg xmlns="http://www.w3.org/2000/svg" xmlns:xlink="http://www.w3.org/1999/xlink" width="600" zoomAndPan="magnify" viewBox="0 0 450 455.999984" height="608" preserveAspectRatio="xMidYMid meet" version="1.0"><defs><clipPath id="4aab25fc8c"><path d="M 7.273438 17.796875 L 443 17.796875 L 443 438 L 7.273438 438 Z M 7.273438 17.796875 " clip-rule="nonzero"/></clipPath></defs><g clip-path="url(#4aab25fc8c)"><path fill="#008037" d="M 7.449219 247.007812 C 7.972656 241.8125 8.429688 236.707031 9.015625 231.617188 C 10.175781 221.433594 11.167969 211.226562 12.679688 201.097656 C 13.488281 195.671875 15.449219 190.425781 16.488281 185.019531 C 17.496094 179.757812 20.910156 175.425781 21.792969 170.15625 C 22.164062 169.050781 22.375 167.917969 22.433594 166.753906 C 22.214844 165.066406 22.117188 163.617188 23.75 162.609375 C 23.730469 159.75 25.75 157.601562 26.429688 155.074219 C 27.945312 150.773438 30.089844 146.804688 32.859375 143.179688 C 34.609375 140.375 36.125 137.449219 37.410156 134.398438 C 40.734375 126.378906 44.695312 118.683594 49.285156 111.3125 C 52.832031 105.855469 56.105469 100.21875 59.726562 94.816406 C 62.019531 91.363281 64.546875 88.09375 67.3125 85.007812 C 73.136719 78.582031 79.144531 72.320312 85.171875 66.082031 C 86.585938 64.695312 88.136719 63.488281 89.828125 62.457031 C 96.449219 58.1875 103.117188 53.996094 109.769531 49.777344 C 116.824219 45.066406 124.261719 41.058594 132.078125 37.761719 C 134.929688 36.394531 137.675781 34.839844 140.3125 33.101562 C 145.152344 30.359375 150.277344 28.347656 155.691406 27.070312 C 158.1875 26.480469 160.636719 25.75 163.046875 24.878906 C 167.777344 23.449219 172.605469 22.507812 177.527344 22.0625 C 186.109375 20.8125 194.691406 19.382812 203.308594 18.683594 C 212.132812 17.972656 221.035156 17.949219 229.90625 17.808594 C 238.417969 17.773438 246.863281 18.507812 255.238281 20.003906 C 260.839844 20.929688 266.3125 22.652344 271.84375 24.027344 C 272.210938 24.164062 272.585938 24.269531 272.96875 24.347656 C 282.53125 25.132812 291.128906 29.5 300.3125 31.71875 C 309.910156 34.214844 318.992188 37.953125 327.566406 42.9375 C 331.671875 45.277344 335.921875 47.320312 340.316406 49.066406 C 348.445312 52.273438 355.859375 56.679688 362.558594 62.289062 C 370.671875 68.539062 378.148438 75.472656 384.992188 83.085938 C 390.277344 89.472656 395.140625 96.167969 399.578125 103.167969 C 400.546875 104.660156 401.632812 105.984375 402.671875 107.386719 C 406.992188 113.246094 411.25 119.15625 415.214844 125.269531 C 417.570312 129.128906 419.613281 133.148438 421.34375 137.324219 C 423.078125 141.226562 425.265625 144.992188 426.863281 149.011719 C 431.195312 158.976562 434.335938 169.300781 436.292969 179.984375 C 436.617188 182.125 437.339844 184.199219 437.71875 186.332031 C 438.851562 192.691406 440.125 199.058594 440.890625 205.4375 C 442.109375 213.054688 442.515625 220.71875 442.117188 228.421875 C 441.945312 230.328125 442.851562 232.320312 442.777344 234.25 C 442.441406 242.296875 442.324219 250.382812 441.320312 258.355469 C 440.449219 264.5625 439.019531 270.636719 437.03125 276.582031 C 435.179688 282.367188 432.554688 287.910156 430.164062 293.519531 C 428.859375 296.597656 427.40625 299.617188 425.90625 302.59375 C 425.023438 304.347656 423.941406 306.007812 422.910156 307.667969 C 422.496094 308.324219 421.699219 308.785156 421.4375 309.472656 C 418.558594 316.890625 413.382812 322.863281 408.914062 329.257812 C 406.363281 333.046875 403.320312 336.382812 399.78125 339.273438 C 397.539062 341.050781 396.210938 343.890625 393.8125 345.648438 C 391.328125 350.753906 386.890625 354.167969 382.984375 358.035156 C 380.75 360.242188 378.328125 362.253906 376.035156 364.410156 C 373.742188 366.5625 371.046875 368.007812 368.878906 370.382812 C 366.75 372.414062 364.492188 374.292969 362.109375 376.023438 C 357.742188 379.648438 353.113281 382.960938 348.519531 386.304688 C 343.921875 389.648438 339.183594 392.925781 334.496094 396.195312 C 333.839844 396.636719 333.148438 397.019531 332.425781 397.339844 C 327.617188 399.582031 322.769531 401.75 317.988281 404.050781 C 311.4375 407.203125 304.941406 410.464844 298.402344 413.640625 C 296.988281 414.324219 295.507812 414.863281 294.035156 415.402344 C 293.113281 415.746094 291.960938 415.726562 291.242188 416.285156 C 288.007812 418.832031 283.960938 419.140625 280.316406 420.546875 C 272.960938 423.394531 265.175781 424.855469 257.839844 427.847656 C 253.378906 429.46875 248.792969 430.582031 244.082031 431.191406 C 236.105469 432.515625 228.070312 433.480469 220.058594 434.59375 C 219.476562 434.714844 218.886719 434.78125 218.292969 434.796875 C 210.144531 434.472656 202.222656 436.476562 194.171875 437.089844 C 184.144531 437.855469 174.09375 438.425781 164.179688 436.046875 C 161.488281 435.410156 158.859375 434.585938 156.292969 433.570312 C 154.785156 433.039062 153.523438 432.15625 152.511719 430.921875 C 151.886719 430.035156 151.117188 429.308594 150.191406 428.742188 C 149.269531 428.175781 148.273438 427.816406 147.199219 427.664062 C 138.328125 425.660156 129.75 422.789062 121.457031 419.046875 C 115.921875 416.441406 110.582031 413.480469 105.441406 410.160156 C 99.910156 406.777344 94.621094 403 89.179688 399.464844 C 79.542969 393.246094 70.597656 386.152344 62.347656 378.1875 C 59.234375 375.171875 55.742188 372.496094 52.917969 369.238281 C 49.179688 364.925781 45.910156 360.203125 42.472656 355.636719 C 36.535156 347.5 31.46875 338.851562 27.269531 329.695312 C 24.554688 324.007812 21.734375 318.355469 19.382812 312.515625 C 16.824219 306.140625 14.566406 299.644531 12.519531 293.089844 C 11.347656 289.148438 10.496094 285.140625 9.964844 281.0625 C 9.164062 275.425781 8.585938 269.730469 8.175781 264.042969 C 7.765625 258.355469 7.675781 252.648438 7.449219 247.007812 Z M 146.671875 387.238281 C 146.34375 387.113281 146.011719 386.972656 145.671875 386.875 C 145.632812 386.875 145.527344 387.121094 145.457031 387.238281 L 146.800781 387.058594 L 147.144531 388.285156 C 147.230469 388.175781 147.40625 387.996094 147.390625 387.96875 C 147.175781 387.699219 146.9375 387.457031 146.671875 387.238281 Z M 322.210938 128.621094 C 321.855469 128.769531 321.539062 128.976562 321.261719 129.238281 C 321.078125 129.546875 321.058594 129.863281 321.203125 130.1875 C 321.453125 130.464844 321.761719 130.574219 322.128906 130.519531 C 322.4375 130.335938 322.601562 130.066406 322.621094 129.707031 C 322.535156 129.339844 322.382812 128.996094 322.171875 128.679688 C 322.320312 128.671875 322.46875 128.675781 322.617188 128.695312 C 322.734375 128.734375 322.847656 128.785156 322.953125 128.84375 Z M 71.972656 342.316406 C 71.710938 342.046875 71.433594 341.796875 71.136719 341.570312 C 71.027344 341.496094 70.789062 341.613281 70.613281 341.644531 C 70.753906 341.890625 70.859375 342.320312 71.042969 342.347656 C 71.417969 342.34375 71.785156 342.277344 72.136719 342.152344 C 71.992188 343.191406 70.898438 344.527344 72.988281 344.867188 C 73.546875 346.101562 74.167969 347.300781 74.855469 348.464844 C 75.054688 348.769531 75.851562 348.683594 76.371094 348.777344 C 76.4375 348.066406 76.796875 346.898438 76.515625 346.714844 C 75.335938 346.050781 74.113281 345.484375 72.839844 345.023438 C 72.546875 344.113281 72.269531 343.203125 71.972656 342.316406 Z M 329.339844 157.179688 C 329 157.074219 328.664062 156.953125 328.3125 156.875 C 328.269531 156.875 328.171875 157.097656 328.097656 157.214844 L 329.492188 157.011719 C 329.40625 157.578125 329.429688 158.140625 329.5625 158.699219 C 329.742188 159.09375 330.351562 159.300781 330.789062 159.554688 C 330.828125 159.582031 331.136719 159.308594 331.117188 159.238281 C 331.058594 158.867188 330.921875 158.53125 330.703125 158.222656 C 330.296875 157.8125 329.84375 157.464844 329.339844 157.179688 Z M 163.679688 397.523438 C 164 397.695312 164.335938 397.816406 164.695312 397.882812 C 164.914062 397.882812 165.144531 397.617188 165.371094 397.464844 C 165.09375 397.332031 164.800781 397.253906 164.496094 397.238281 C 164.144531 397.339844 163.816406 397.492188 163.511719 397.695312 C 162.457031 395.058594 162.457031 395.058594 160.371094 395.304688 C 161.460938 396.0625 162.542969 396.820312 163.679688 397.523438 Z M 72.234375 175.011719 C 69.535156 175.75 69.492188 175.835938 70.46875 177.847656 C 71.105469 176.820312 71.695312 175.886719 72.257812 174.9375 L 72.097656 174.164062 Z M 397.382812 176.023438 C 397.683594 175.78125 398.265625 175.507812 398.234375 175.324219 C 397.914062 172.699219 397.410156 170.113281 396.722656 167.5625 C 396.386719 166.476562 395.007812 166.03125 393.902344 167.242188 C 393.960938 170.675781 393.449219 174.320312 397.46875 176.222656 C 397.222656 176.769531 396.960938 177.320312 397.261719 176.667969 C 397.140625 177.320312 397.265625 176.679688 397.386719 176.023438 Z M 98.289062 187.527344 C 98.78125 185.382812 101.476562 184.152344 100.890625 181.273438 C 100.136719 181.753906 99.496094 182.355469 98.972656 183.078125 C 98.449219 183.800781 98.074219 184.597656 97.855469 185.460938 C 97.667969 186.023438 98.246094 186.832031 98.476562 187.53125 C 98.035156 187.597656 97.617188 187.742188 97.226562 187.953125 C 96.835938 188.167969 96.492188 188.441406 96.195312 188.777344 C 95.898438 189.109375 95.667969 189.484375 95.5 189.898438 C 95.335938 190.3125 95.242188 190.742188 95.226562 191.1875 C 97.289062 191.734375 99.375 192.15625 101.488281 192.445312 C 102.203125 192.503906 103.21875 191.625 103.695312 190.910156 C 103.988281 190.460938 103.519531 189.511719 103.394531 188.789062 C 101.382812 189.628906 100.410156 186.269531 98.296875 187.527344 Z M 217.550781 138.695312 C 221.839844 138.175781 226.050781 137.28125 230.183594 136.019531 C 234.292969 134.402344 239.453125 135.351562 242.558594 131.207031 C 242.699219 131.054688 242.871094 130.964844 243.078125 130.933594 C 246.714844 130.28125 250.347656 129.609375 253.992188 129.015625 C 255.171875 129.027344 256.347656 128.929688 257.511719 128.730469 C 258.945312 128.070312 260.449219 127.703125 262.027344 127.628906 C 263.605469 127.554688 265.136719 127.777344 266.628906 128.296875 C 267.429688 128.609375 269.109375 128.054688 268.242188 125.832031 C 262.613281 125.660156 257.003906 125.90625 251.410156 126.566406 C 244.9375 127.777344 238.726562 130.347656 232.171875 131.472656 C 231.800781 131.609375 231.464844 131.8125 231.171875 132.074219 C 228.054688 134.292969 224.59375 135.566406 220.78125 135.890625 C 220.378906 135.863281 219.984375 135.917969 219.605469 136.054688 C 219.222656 136.191406 218.882812 136.398438 218.589844 136.675781 C 218.292969 136.953125 218.066406 137.28125 217.910156 137.652344 C 217.75 138.027344 217.671875 138.414062 217.675781 138.820312 C 217.335938 138.761719 216.988281 138.730469 216.640625 138.726562 C 216.5 138.726562 216.371094 138.949219 216.238281 139.074219 L 217.035156 139.5625 Z M 63.875 214.953125 C 61.488281 215.164062 61.367188 217.34375 60.972656 218.832031 C 58.84375 226.96875 55.992188 235.015625 56.804688 243.648438 C 56.828125 244.640625 56.71875 245.613281 56.480469 246.574219 C 56.074219 248.757812 56.046875 250.941406 56.394531 253.132812 C 56.746094 255.324219 57.453125 257.394531 58.515625 259.339844 C 58.382812 258.707031 58.335938 258.066406 58.378906 257.417969 C 58.417969 256.769531 58.542969 256.140625 58.753906 255.527344 C 58.964844 254.914062 59.253906 254.339844 59.621094 253.804688 C 59.988281 253.269531 60.417969 252.792969 60.914062 252.375 C 61.554688 251.433594 62 250.410156 62.246094 249.296875 L 59.550781 246.890625 C 59.613281 246.539062 59.578125 246.273438 59.695312 246.15625 C 62.878906 243.183594 62.84375 243.210938 61.65625 239.894531 C 61.277344 238.664062 60.96875 237.414062 60.726562 236.144531 C 62.105469 235.09375 63.226562 234.320312 64.246094 233.433594 C 64.996094 232.78125 64.597656 231.757812 63.40625 231.226562 C 62.769531 230.980469 62.125 230.773438 61.464844 230.601562 C 60.855469 227.699219 61.253906 225.484375 64.035156 224.535156 C 65.449219 224.046875 66.585938 223.535156 66.789062 221.898438 C 66.890625 221.515625 66.9375 221.125 66.921875 220.730469 C 66.90625 220.332031 66.832031 219.945312 66.699219 219.574219 C 66.566406 219.199219 66.382812 218.851562 66.144531 218.535156 C 65.90625 218.21875 65.628906 217.941406 65.304688 217.710938 L 65.511719 217.746094 C 64.039062 217.300781 63.839844 216.097656 63.726562 214.800781 L 68.140625 208.40625 L 65.164062 207.523438 C 63.378906 211.628906 63.378906 211.628906 63.875 214.953125 Z M 147.941406 86.566406 C 148.246094 87.058594 148.53125 87.546875 148.875 88.015625 C 148.957031 88.132812 149.234375 88.105469 149.421875 88.144531 C 149.421875 87.828125 149.523438 87.296875 149.402344 87.238281 C 148.871094 87.027344 148.324219 86.863281 147.765625 86.75 C 148.597656 85.917969 149.507812 85.1875 150.496094 84.554688 C 156.109375 81.730469 161.773438 79.003906 167.429688 76.265625 C 167.957031 75.972656 168.519531 75.808594 169.117188 75.773438 C 172.242188 75.828125 174.183594 73.078125 177.027344 72.496094 C 179.703125 69.390625 183.59375 68.328125 187.035156 66.492188 C 187.277344 66.359375 187.3125 65.839844 187.523438 65.265625 C 186.800781 64.996094 186.050781 64.855469 185.277344 64.84375 C 180.25 65.730469 175.230469 66.691406 170.222656 67.714844 C 169.054688 67.945312 167.976562 68.378906 166.980469 69.027344 C 163.566406 71.328125 160.253906 73.777344 156.878906 76.136719 C 153.984375 78.152344 151.074219 80.136719 148.140625 82.089844 C 147.789062 82.4375 147.386719 82.714844 146.941406 82.925781 C 146.492188 83.136719 146.023438 83.269531 145.53125 83.320312 C 145.039062 83.371094 144.550781 83.339844 144.070312 83.222656 C 143.589844 83.109375 143.140625 82.917969 142.722656 82.648438 C 142.058594 82.203125 140.554688 83.019531 139.433594 83.261719 L 143.417969 78.359375 L 146.539062 80.589844 L 150.347656 72.226562 C 149.070312 72.34375 147.808594 72.566406 146.570312 72.898438 C 140.5 75.21875 134.453125 77.597656 128.429688 80.027344 C 126.242188 80.917969 124.117188 81.9375 122.054688 83.085938 C 112.636719 88.492188 103.527344 94.371094 94.722656 100.722656 C 87.734375 105.574219 81.5 111.257812 76.023438 117.769531 C 74.855469 119.363281 73.597656 120.875 72.242188 122.3125 C 67.464844 127.167969 63.941406 132.808594 61.679688 139.230469 C 59.160156 145.460938 56.335938 151.519531 53.3125 157.515625 C 51.148438 161.726562 49.324219 166.082031 47.84375 170.578125 C 44.835938 179.984375 42.554688 189.5625 40.992188 199.3125 C 39.875 205.96875 39.78125 212.636719 40.707031 219.324219 C 41.226562 222.957031 42.144531 226.53125 42.855469 230.007812 C 44.300781 229.886719 45.722656 229.636719 47.121094 229.261719 C 47.457031 229.082031 47.730469 228.835938 47.941406 228.523438 C 48.15625 228.207031 48.28125 227.863281 48.324219 227.484375 C 48.324219 226.925781 47.5625 226.21875 46.960938 225.886719 C 46.222656 225.617188 45.457031 225.464844 44.671875 225.429688 C 44.933594 223.597656 45.367188 221.808594 45.972656 220.0625 C 46.890625 218.382812 47.941406 216.789062 49.125 215.285156 C 48.527344 211.964844 48.503906 208.636719 49.054688 205.308594 C 49.605469 201.976562 50.699219 198.835938 52.339844 195.886719 C 52.710938 195.203125 53.386719 194.511719 53.386719 193.824219 C 53.375 189.359375 55.566406 185.4375 56.363281 181.1875 C 58.5625 170.457031 62.648438 160.496094 68.621094 151.3125 C 73.257812 143.679688 78.90625 136.886719 85.558594 130.933594 C 86.269531 130.277344 86.914062 129.5625 87.488281 128.789062 C 90.789062 124.578125 94.734375 121.089844 99.3125 118.324219 C 101.902344 117.023438 104.328125 115.472656 106.59375 113.664062 C 108.183594 112.152344 110.0625 111.191406 111.695312 109.84375 L 112.945312 109.78125 C 112.847656 109.671875 112.703125 109.449219 112.660156 109.46875 C 112.367188 109.625 112.082031 109.792969 111.804688 109.980469 C 111.445312 109.855469 110.765625 109.703125 110.773438 109.605469 C 110.832031 108.902344 110.789062 107.914062 111.222656 107.566406 C 113.011719 106.128906 115.054688 105.003906 116.8125 103.539062 C 118.039062 102.515625 119.359375 102.910156 120.648438 102.726562 C 125.21875 100.894531 125.21875 100.894531 130.328125 94.414062 L 128.15625 92.566406 L 133.796875 87.753906 C 133.515625 88.820312 133.011719 89.960938 134.898438 90.640625 C 135.25 89.902344 136.046875 89.035156 135.878906 88.414062 C 135.566406 87.1875 134.441406 87.710938 133.574219 87.980469 C 134.941406 85.527344 137.609375 84.667969 139.648438 83.03125 C 138.761719 85.4375 140.695312 85.90625 142.417969 86.769531 C 141.46875 87.84375 140.558594 88.8125 139.722656 89.835938 C 139.214844 90.460938 138.804688 91.171875 139.824219 92.011719 C 142.8125 90.617188 145.515625 88.800781 147.941406 86.566406 Z M 143.941406 133.910156 C 144.269531 134.367188 144.648438 134.777344 145.078125 135.132812 C 145.257812 135.253906 145.738281 134.917969 146.082031 134.785156 C 145.902344 134.515625 145.746094 134.050781 145.535156 134.015625 C 144.949219 133.984375 144.363281 134.007812 143.78125 134.089844 C 144.589844 132.917969 145.511719 131.800781 147.113281 132.152344 C 147.679688 132.300781 148.25 132.3125 148.824219 132.179688 C 149.394531 132.050781 149.90625 131.796875 150.351562 131.414062 C 151.871094 130.4375 153.457031 129.578125 155.105469 128.839844 L 155.105469 125.257812 C 157.621094 124.996094 159.011719 122.421875 162.5625 121.902344 C 159.714844 124.871094 157.1875 127.054688 157.746094 130.976562 C 159.023438 131.027344 160.28125 130.917969 161.53125 130.65625 C 162.441406 130.300781 163.058594 129.660156 163.382812 128.734375 C 163.488281 128.246094 162.355469 127.492188 161.617188 126.683594 C 164.832031 125.15625 165.398438 121.875 166.765625 119.421875 C 169.140625 119.117188 171.714844 120.980469 173.3125 118.0625 L 171.65625 116.648438 C 176.863281 112.394531 181.921875 108.382812 188.71875 107.183594 C 188.4375 104.402344 191.859375 103.675781 191.886719 100.675781 C 190.949219 100.398438 189.996094 100.234375 189.019531 100.1875 C 186.441406 100.136719 183.917969 100.480469 181.445312 101.222656 C 175.109375 103.578125 169.285156 106.847656 163.972656 111.03125 C 158.0625 116.21875 152.09375 121.351562 146.273438 126.640625 C 144.71875 128.140625 143.40625 129.824219 142.328125 131.691406 C 141.421875 133.179688 142.585938 133.746094 143.941406 133.910156 Z M 204.414062 84.132812 C 207.976562 83.042969 211.5 81.808594 215.113281 80.914062 C 216.1875 80.800781 217.210938 80.507812 218.183594 80.027344 C 219.152344 79.546875 220.007812 78.914062 220.75 78.128906 C 220.976562 77.855469 221.242188 77.640625 221.554688 77.476562 C 221.867188 77.3125 222.195312 77.214844 222.546875 77.183594 C 222.898438 77.152344 223.242188 77.191406 223.574219 77.300781 C 223.910156 77.40625 224.210938 77.574219 224.480469 77.804688 C 225.113281 78.207031 225.777344 78.5625 226.054688 78.726562 C 227.96875 77.890625 229.9375 77.21875 231.960938 76.699219 C 236.929688 75.875 241.953125 75.375 246.9375 74.617188 C 249.824219 73.84375 252.691406 73.902344 255.546875 74.792969 C 256.082031 75.085938 256.652344 75.210938 257.261719 75.175781 C 257.867188 75.140625 258.421875 74.945312 258.917969 74.59375 C 259.746094 74.027344 260.65625 73.679688 261.648438 73.554688 C 262.644531 73.429688 263.613281 73.535156 264.554688 73.878906 C 266.472656 74.34375 268.410156 74.4375 270.367188 74.160156 C 271.722656 74.074219 273.066406 74.167969 274.394531 74.445312 C 277.707031 75.035156 280.988281 74.898438 284.238281 74.027344 C 281.402344 71.59375 278.144531 70.089844 274.453125 69.515625 C 272.699219 69.28125 270.992188 68.863281 269.332031 68.261719 C 266.378906 67.09375 263.3125 66.46875 260.136719 66.382812 C 252.871094 65.929688 245.582031 65.59375 238.371094 64.667969 C 231.886719 63.675781 225.449219 63.910156 219.054688 65.371094 C 214.292969 66.558594 209.492188 67.707031 204.878906 69.335938 C 200.351562 70.746094 196.054688 72.664062 191.980469 75.085938 C 185.738281 79.148438 179.984375 83.957031 174.082031 88.507812 C 173.964844 88.570312 173.855469 88.648438 173.753906 88.738281 C 173.65625 88.824219 173.566406 88.925781 173.492188 89.035156 C 173.417969 89.148438 173.355469 89.265625 173.308594 89.390625 C 173.265625 89.519531 173.234375 89.648438 173.21875 89.78125 C 173.207031 89.914062 173.207031 90.046875 173.226562 90.179688 C 173.246094 90.3125 173.277344 90.441406 173.328125 90.566406 C 173.378906 90.691406 173.445312 90.804688 173.523438 90.914062 C 173.601562 91.023438 173.691406 91.121094 173.796875 91.207031 C 176.234375 90.835938 178.644531 90.335938 181.023438 89.707031 C 181.902344 89.273438 182.832031 89.050781 183.808594 89.035156 C 184.785156 89.019531 185.71875 89.210938 186.613281 89.613281 C 186.976562 89.785156 187.355469 89.886719 187.753906 89.921875 C 188.15625 89.957031 188.546875 89.921875 188.933594 89.816406 C 189.320312 89.710938 189.675781 89.539062 190.003906 89.304688 C 190.328125 89.074219 190.605469 88.789062 190.828125 88.457031 C 191.289062 87.929688 191.839844 87.535156 192.488281 87.273438 C 193.136719 87.007812 193.808594 86.910156 194.507812 86.972656 C 198.113281 86.871094 201.457031 85.878906 204.539062 83.996094 Z M 211.332031 43.09375 C 212.828125 45.417969 214.839844 43.890625 216.609375 43.527344 C 218.652344 43.105469 218.640625 41.035156 219.203125 39.667969 L 227.867188 42.050781 C 228.96875 41.109375 229.648438 40.421875 229.089844 39.296875 C 228.941406 39.164062 228.808594 38.941406 228.65625 38.929688 C 220.238281 38.023438 211.808594 37.875 203.363281 38.480469 C 188.070312 39.675781 173.617188 44.019531 159.21875 48.777344 C 153.433594 50.691406 147.925781 53.375 142.25 55.511719 C 134.53125 58.515625 127.140625 62.183594 120.082031 66.515625 C 115.925781 68.460938 112.300781 71.121094 109.199219 74.503906 L 115.429688 71.316406 C 118.15625 69.742188 120.960938 68.332031 123.847656 67.078125 C 131.03125 64.382812 138.273438 61.808594 145.585938 59.5 C 152.144531 57.429688 158.765625 55.492188 165.480469 54.035156 C 171.234375 52.785156 177.179688 52.46875 182.988281 51.421875 C 187.820312 50.554688 192.589844 49.429688 197.300781 48.042969 C 200.128906 46.765625 203.066406 45.835938 206.113281 45.257812 C 207.964844 44.804688 209.703125 44.089844 211.332031 43.105469 Z M 118.75 120.089844 C 115.066406 120.867188 111.835938 122.523438 109.054688 125.0625 C 103.664062 129.929688 98.625 135.136719 93.925781 140.675781 C 89.148438 146.898438 84.890625 153.460938 81.15625 160.359375 C 79.378906 163.171875 77.457031 165.878906 75.386719 168.484375 C 75.046875 168.953125 74.371094 169.378906 74.355469 169.84375 C 74.292969 171.65625 74.433594 173.476562 74.53125 176.164062 C 77.210938 173.496094 79.71875 170.679688 82.0625 167.714844 C 84.84375 163.726562 88.523438 160.382812 90.597656 155.882812 C 90.90625 155.214844 91.707031 154.785156 92.222656 154.191406 C 93.691406 152.472656 96.109375 151.449219 96.144531 148.621094 C 96.144531 148.058594 97.039062 147.371094 97.667969 146.980469 C 98.667969 146.417969 99.695312 145.917969 100.753906 145.480469 C 100.921875 144.214844 100.660156 142.582031 101.289062 142.085938 C 103.953125 139.996094 105.230469 136.53125 107.96875 134.820312 C 111.277344 132.75 112.054688 129.144531 114.328125 126.519531 C 114.464844 126.375 114.617188 126.253906 114.789062 126.15625 C 116.765625 124.960938 117.441406 122.910156 118.75 120.089844 Z M 48.179688 345.339844 L 47.171875 346.109375 C 47.695312 347.320312 48.296875 348.496094 48.976562 349.625 C 56.675781 360.707031 65.8125 370.4375 76.382812 378.816406 C 80.679688 382.265625 85.082031 385.582031 89.589844 388.765625 C 100.171875 396.253906 110.503906 404.148438 122.441406 409.507812 C 126.210938 411.203125 129.886719 413.164062 133.75 414.601562 C 137.910156 416.488281 142.269531 417.59375 146.828125 417.910156 C 145.484375 416.886719 144.011719 416.101562 142.414062 415.550781 C 136.398438 413.660156 130.652344 411.148438 125.179688 408.015625 C 121.074219 405.703125 116.976562 403.375 112.890625 401.027344 C 110.457031 399.726562 108.097656 398.296875 105.816406 396.746094 C 100.890625 392.808594 95.640625 389.363281 90.066406 386.414062 C 89.238281 385.882812 88.492188 385.253906 87.828125 384.53125 C 84.855469 381.984375 81.964844 379.335938 78.898438 376.90625 C 74.136719 373.378906 69.855469 369.347656 66.054688 364.804688 C 65.316406 363.882812 64.46875 363.0625 63.664062 362.199219 C 61.796875 360.179688 59.9375 358.152344 58.054688 356.152344 C 54.710938 352.59375 51.667969 348.75 48.179688 345.339844 Z M 85.046875 264.363281 C 85.066406 263.75 85.140625 263.140625 85.265625 262.542969 C 87.984375 253.507812 86.757812 253.382812 85.757812 242.636719 C 85.480469 239.695312 84.53125 236.410156 87.121094 233.738281 C 87.449219 233.40625 87.074219 232.390625 87.023438 231.695312 C 86.707031 231.660156 86.394531 231.660156 86.082031 231.695312 C 82.960938 232.761719 82.40625 235.632812 81.824219 238.246094 C 79.515625 248.484375 79.058594 258.808594 80.464844 269.214844 C 80.988281 272.089844 81.742188 274.90625 82.722656 277.664062 C 83.058594 278.175781 83.53125 278.433594 84.140625 278.441406 C 84.585938 278.421875 85.40625 277.808594 85.382812 277.511719 C 85.054688 273.5 87.078125 270.03125 87.894531 266.234375 Z M 198.523438 169.230469 C 197.984375 170.390625 197.789062 171.8125 197.011719 172.316406 C 194.339844 174.34375 191.421875 175.914062 188.261719 177.027344 C 186.75 177.457031 185.347656 178.113281 184.050781 179 C 182.753906 179.886719 181.632812 180.953125 180.683594 182.203125 C 179.777344 183.25 178.777344 184.199219 177.6875 185.046875 C 176.597656 186.011719 175.757812 187.160156 175.171875 188.492188 C 174.585938 189.828125 174.304688 191.21875 174.328125 192.675781 C 178.003906 193.304688 178.25 193.410156 178.832031 192.292969 C 180.847656 188.355469 184.605469 186.640625 188.1875 184.707031 C 190.128906 183.660156 191.960938 182.722656 192.308594 180.15625 C 192.417969 179.359375 193.386719 178.601562 194.097656 177.988281 C 194.703125 177.484375 195.359375 177.066406 196.0625 176.726562 C 196.769531 176.382812 197.507812 176.136719 198.277344 175.976562 C 199.042969 175.816406 199.820312 175.753906 200.605469 175.785156 C 201.386719 175.820312 202.15625 175.945312 202.90625 176.167969 L 207.578125 171.488281 L 205.949219 169.230469 Z M 40.246094 257.640625 C 40.089844 258.210938 40.003906 258.792969 39.984375 259.382812 C 40.792969 265.425781 42.085938 271.367188 43.859375 277.199219 C 44.285156 278.886719 44.867188 280.523438 45.597656 282.101562 C 47.054688 285.148438 47.957031 288.351562 48.3125 291.710938 C 48.683594 294.230469 49.453125 296.621094 50.613281 298.890625 C 51.777344 301.15625 53.273438 303.175781 55.097656 304.949219 C 54.761719 302.742188 54.660156 301.625 54.40625 300.535156 C 54.140625 299.402344 53.210938 298.144531 53.484375 297.210938 C 54.101562 295.121094 53.019531 293.832031 52.070312 292.347656 C 51.65625 291.703125 50.933594 290.824219 51.109375 290.316406 C 51.328125 289.675781 51.355469 289.023438 51.1875 288.367188 C 51.019531 287.707031 50.683594 287.148438 50.179688 286.691406 C 49.605469 285.65625 49.289062 284.546875 49.230469 283.363281 C 48.902344 281.4375 48.804688 279.464844 48.398438 277.558594 C 48.238281 276.40625 47.769531 275.394531 46.996094 274.527344 C 46.03125 273.679688 45.3125 272.65625 44.835938 271.464844 C 44.363281 270.273438 44.183594 269.035156 44.300781 267.757812 C 44.320312 265.867188 43.980469 264.050781 43.277344 262.296875 C 42.574219 260.542969 41.5625 258.992188 40.246094 257.640625 Z M 155.421875 209.996094 C 160.707031 207.058594 165.273438 203.253906 169.117188 198.582031 C 170.3125 196.574219 171.015625 194.40625 171.222656 192.082031 C 171.222656 191.789062 171.152344 191.515625 171.011719 191.257812 C 170.871094 191.003906 170.679688 190.796875 170.433594 190.640625 C 169.71875 190.453125 169 190.445312 168.28125 190.613281 C 167.886719 190.71875 167.578125 190.941406 167.347656 191.273438 C 165.039062 194.363281 161.953125 196.765625 159.8125 200.03125 C 158.691406 201.746094 156.574219 202.777344 157.285156 205.425781 C 157.550781 206.40625 156.496094 207.007812 155.585938 207.519531 C 154.632812 208.066406 154.3125 208.933594 155.421875 209.996094 Z M 88.433594 207.894531 C 87.867188 208.101562 87.605469 208.125 87.574219 208.21875 C 87 210.472656 86.078125 212.578125 84.816406 214.535156 C 83.199219 216.835938 85.171875 219.496094 84.382812 221.949219 C 84.019531 223.058594 83.78125 224.210938 83.523438 225.351562 C 83.285156 226.300781 83.101562 227.257812 82.972656 228.226562 C 82.914062 228.574219 82.953125 228.910156 83.082031 229.238281 C 83.214844 229.5625 83.421875 229.832031 83.703125 230.042969 C 83.984375 230.253906 84.300781 230.375 84.648438 230.40625 C 85 230.4375 85.332031 230.378906 85.648438 230.222656 C 86.835938 229.675781 88.074219 228.261719 89.054688 228.453125 C 90.820312 228.789062 91.222656 228.113281 91.332031 226.792969 C 91.449219 225.378906 90.144531 225.554688 89.3125 225.179688 C 89.054688 225.0625 88.953125 224.59375 88.660156 224.074219 L 91.582031 221.824219 C 89.589844 218.203125 89.660156 218.199219 89.417969 212.902344 C 89.21875 211.207031 88.890625 209.539062 88.433594 207.894531 Z M 270.175781 391.433594 C 269.207031 391.359375 268.238281 391.367188 267.269531 391.457031 C 262.664062 392.28125 258.078125 393.1875 253.480469 394.0625 C 251.761719 394.386719 250.023438 394.652344 248.332031 395.054688 C 247.207031 395.335938 246.113281 395.710938 245.050781 396.171875 C 244.773438 396.289062 244.65625 396.78125 244.335938 397.316406 L 245.679688 399.972656 L 261.28125 396.445312 C 263.800781 394.164062 267.023438 393.335938 270.175781 391.433594 Z M 69.40625 334.09375 C 69.652344 331.957031 68.671875 330.960938 67.199219 330.816406 C 66.296875 330.753906 65.472656 330.46875 64.722656 329.960938 C 63.972656 329.453125 63.398438 328.792969 63.003906 327.980469 C 61.246094 324.226562 57.609375 322.414062 55.03125 319.550781 C 54.445312 318.90625 53.675781 318.90625 53.003906 319.773438 C 53.074219 320.320312 53.21875 320.84375 53.433594 321.351562 C 56.730469 327.378906 60.726562 332.898438 65.421875 337.910156 C 65.566406 338.054688 66.0625 337.84375 66.355469 337.804688 L 66.355469 334.953125 Z M 142.9375 310.308594 C 143.617188 306.667969 143.582031 306.414062 142.691406 304.453125 C 141.382812 301.601562 140.09375 298.738281 138.8125 295.871094 C 138.089844 294.085938 137.070312 292.484375 135.757812 291.074219 C 134.441406 289.664062 132.917969 288.535156 131.1875 287.6875 C 130.988281 288.839844 131.007812 289.984375 131.246094 291.128906 C 134.441406 297.804688 137.328125 304.710938 142.9375 310.324219 Z M 126.839844 154.0625 C 127.878906 153.5 128.800781 153.304688 129.1875 152.746094 C 129.714844 151.785156 130.441406 151.019531 131.371094 150.441406 C 132.296875 149.863281 133.308594 149.550781 134.398438 149.5 C 134.699219 149.480469 134.984375 149.402344 135.253906 149.265625 C 135.519531 149.128906 135.753906 148.945312 135.945312 148.710938 C 136.136719 148.480469 136.277344 148.21875 136.363281 147.929688 C 136.449219 147.640625 136.476562 147.347656 136.441406 147.046875 C 136.527344 146.300781 136.878906 145.71875 137.503906 145.296875 C 138.675781 144.597656 140.042969 144.242188 141.253906 143.597656 C 142.070312 143.164062 142.953125 142.59375 142.632812 141.253906 C 142.140625 141.0625 141.617188 140.644531 141.101562 140.667969 C 139.363281 140.757812 137.71875 141.199219 136.171875 141.996094 C 134.625 142.792969 133.3125 143.875 132.234375 145.242188 C 131.445312 146.382812 130.496094 147.367188 129.378906 148.191406 C 128.261719 149.011719 127.039062 149.632812 125.714844 150.042969 C 125.445312 150.105469 125.289062 150.65625 125.0625 151.007812 Z M 314.167969 60.996094 C 314.351562 62.070312 314.261719 62.957031 314.566406 63.121094 C 317.429688 64.6875 320.367188 66.128906 323.28125 67.605469 C 323.890625 68.488281 323.035156 69.992188 324.679688 70.511719 C 325.5625 70.792969 326.238281 71.675781 327.074219 72.179688 C 328.007812 72.742188 328.910156 72.800781 329.527344 71.304688 C 328.121094 69.152344 326.832031 66.890625 323.6875 66.367188 C 322.34375 65.941406 321.234375 65.175781 320.359375 64.074219 C 318.621094 62.394531 316.554688 61.367188 314.167969 60.996094 Z M 325.34375 180.8125 C 324.605469 185.828125 327.253906 188.925781 329.609375 192.554688 C 331.757812 185.519531 331.527344 184.871094 325.34375 180.8125 Z M 107.351562 181.21875 C 107.835938 180.429688 108.101562 179.574219 108.148438 178.652344 C 108.199219 177.726562 108.023438 176.847656 107.621094 176.011719 C 107.3125 174.9375 107.160156 173.839844 107.164062 172.71875 C 107.117188 172.476562 106.648438 172.289062 106.121094 171.875 L 102.445312 174.328125 L 102.445312 179.027344 Z M 135.296875 134.6875 C 133.933594 135 132.679688 135.566406 131.542969 136.386719 C 130.40625 137.207031 129.472656 138.214844 128.738281 139.410156 C 127.898438 140.457031 127.628906 141.945312 126.855469 143.066406 C 125.964844 144.21875 124.996094 145.308594 123.957031 146.328125 C 126.132812 146.289062 127.808594 146.121094 128.9375 144.046875 C 130.578125 141.027344 132.777344 138.320312 135.289062 134.6875 Z M 231.1875 400.023438 C 230.613281 397.597656 230.308594 397.128906 229.015625 397.324219 C 226.890625 397.625 224.800781 398.066406 222.738281 398.648438 C 222 398.875 220.773438 399.289062 221.089844 400.640625 C 224.875 401.789062 226.273438 401.699219 231.1875 400.023438 Z M 377.960938 289.195312 C 376.140625 289.195312 374.960938 288.832031 374.449219 289.265625 C 372.96875 290.542969 371.652344 291.964844 370.488281 293.535156 C 370.324219 293.722656 370.203125 293.9375 370.128906 294.179688 C 370.054688 294.417969 370.03125 294.664062 370.0625 294.914062 C 370.09375 295.164062 370.171875 295.394531 370.304688 295.609375 C 370.433594 295.828125 370.601562 296.007812 370.808594 296.148438 C 372.644531 296.460938 374.222656 296.425781 375.054688 294.214844 C 375.90625 292.472656 376.875 290.800781 377.960938 289.199219 Z M 403.179688 202.398438 C 403.496094 198.785156 403.066406 195.261719 401.890625 191.828125 C 401.480469 190.5625 400.554688 190.429688 398.773438 191.1875 C 399.25 193.238281 399.707031 195.277344 400.203125 197.316406 C 400.492188 198.65625 400.859375 199.972656 401.304688 201.269531 C 401.441406 201.644531 402.152344 201.804688 403.179688 202.410156 Z M 236.546875 86.011719 C 241.125 86.4375 245.6875 86.304688 250.230469 85.617188 C 250.429688 85.589844 250.558594 85.011719 250.722656 84.691406 C 248.34375 84.230469 245.949219 84.109375 243.539062 84.335938 C 241.128906 84.558594 238.796875 85.121094 236.546875 86.011719 Z M 94.949219 291.707031 C 95.21875 291.179688 95.410156 290.628906 95.527344 290.050781 C 95.597656 288.402344 95.394531 286.785156 94.929688 285.203125 C 94.464844 283.621094 93.753906 282.15625 92.804688 280.808594 C 90.46875 284.664062 93.296875 287.734375 94.949219 291.707031 Z M 406.773438 232.695312 C 407.175781 230.644531 407.464844 229.363281 407.644531 228.066406 C 407.6875 227.765625 407.347656 227.410156 407.300781 227.316406 L 399.570312 226.550781 L 400.492188 230.488281 C 401.285156 230.042969 402.105469 229.644531 402.945312 229.292969 C 403.667969 229.105469 404.398438 228.964844 405.136719 228.878906 C 405.476562 229.601562 405.722656 230.105469 405.949219 230.613281 C 406.136719 231.050781 406.300781 231.496094 406.773438 232.695312 Z M 85.105469 280.371094 C 83.566406 285.089844 83.535156 285.351562 84.863281 288.09375 C 85.03125 288.445312 85.734375 288.535156 86.257812 288.78125 C 87.761719 285.59375 85.785156 283.070312 85.105469 280.371094 Z M 160.648438 350.765625 C 161.003906 351.6875 161.316406 352.089844 161.246094 352.40625 C 161.0625 353.230469 159.53125 353.875 160.707031 354.835938 C 161.472656 355.453125 162.34375 355.722656 163.324219 355.640625 C 164.390625 355.28125 165.378906 354.769531 166.285156 354.105469 L 165.332031 350.277344 Z M 106.246094 193.214844 C 108.738281 193.015625 110.472656 192.898438 112.191406 192.699219 C 112.296875 192.6875 112.492188 191.808594 112.371094 191.71875 C 110.984375 190.765625 109.542969 189.886719 108.152344 189.011719 C 107.726562 189.5 107.367188 189.746094 107.226562 190.078125 C 106.921875 190.804688 106.738281 191.574219 106.246094 193.214844 Z M 140.101562 331.691406 C 140.695312 336.527344 141.15625 336.859375 145.542969 335.789062 C 144.3125 335.496094 143.148438 335.039062 142.042969 334.421875 C 141.265625 333.605469 140.621094 332.695312 140.101562 331.691406 Z M 340.355469 81.691406 C 338.960938 79.886719 337.984375 78.449219 336.820312 77.191406 C 336.246094 76.675781 335.570312 76.402344 334.796875 76.367188 C 334.378906 76.335938 333.835938 76.886719 333.515625 77.304688 C 333.394531 77.457031 333.691406 78.246094 333.882812 78.285156 C 334.875 78.570312 335.785156 79.023438 336.613281 79.636719 C 337.445312 80.25 338.140625 80.988281 338.703125 81.855469 C 338.839844 82.007812 339.394531 81.789062 340.355469 81.691406 Z M 234.910156 396.65625 C 234.324219 397.34375 233.746094 397.714844 233.683594 398.160156 C 233.617188 398.398438 233.59375 398.644531 233.621094 398.890625 C 233.648438 399.136719 233.71875 399.371094 233.832031 399.589844 C 233.949219 399.8125 234.101562 400.003906 234.289062 400.164062 C 234.480469 400.328125 234.691406 400.449219 234.925781 400.527344 C 235.800781 400.851562 236.699219 400.945312 237.621094 400.808594 C 237.976562 400.722656 238.4375 399.109375 238.195312 398.878906 C 237.167969 398.039062 236.070312 397.296875 234.910156 396.65625 Z M 151.511719 340.691406 L 146.878906 340.023438 C 146.910156 341.058594 147.175781 342.03125 147.675781 342.9375 C 148.175781 343.847656 148.855469 344.589844 149.714844 345.171875 C 150.167969 344.71875 150.554688 344.5 150.65625 344.191406 C 150.945312 343.289062 151.109375 342.351562 151.511719 340.691406 Z M 369.339844 303.734375 L 370.152344 304.070312 C 371.238281 302.515625 372.375 300.992188 373.359375 299.375 C 373.515625 299.132812 373.09375 298.191406 372.734375 298.03125 C 372.320312 297.847656 371.308594 298.03125 371.199219 298.300781 C 370.480469 300.074219 369.941406 301.917969 369.339844 303.734375 Z M 215.984375 300.042969 C 213.164062 297.1875 210.4375 299.089844 206.898438 299.058594 C 207.960938 299.667969 208.277344 300.003906 208.601562 300.011719 C 211.0625 300.0625 213.523438 300.042969 215.984375 300.042969 Z M 88.839844 297.433594 C 89.152344 297.109375 89.402344 296.738281 89.59375 296.328125 C 89.78125 295.917969 89.898438 295.488281 89.941406 295.039062 C 89.984375 294.585938 89.949219 294.140625 89.84375 293.703125 C 89.738281 293.265625 89.5625 292.855469 89.316406 292.472656 C 88.898438 291.695312 87.355469 291.375 86.828125 292.039062 C 86.417969 292.574219 86.003906 293.574219 86.238281 294.035156 C 87.003906 295.25 87.871094 296.382812 88.839844 297.433594 Z M 151.695312 266.753906 C 151.738281 266.566406 151.75 266.375 151.730469 266.183594 C 151.648438 265.851562 151.503906 265.550781 151.304688 265.277344 C 151.101562 265.003906 150.851562 264.78125 150.5625 264.605469 C 150.269531 264.429688 149.957031 264.316406 149.621094 264.269531 C 149.285156 264.21875 148.949219 264.234375 148.621094 264.316406 C 148.042969 264.390625 147.148438 265.09375 147.09375 265.585938 C 146.9375 267.035156 148.171875 267.433594 149.316406 267.664062 C 149.886719 267.761719 150.449219 267.726562 151.003906 267.558594 C 151.292969 267.476562 151.476562 267.035156 151.703125 266.753906 Z M 407.121094 224.6875 C 407.441406 224.265625 407.6875 223.808594 407.851562 223.304688 C 408.015625 222.804688 408.09375 222.289062 408.082031 221.761719 C 408.070312 221.234375 407.972656 220.722656 407.789062 220.226562 C 407.601562 219.730469 407.339844 219.28125 407 218.878906 C 406.730469 219.316406 406.527344 219.785156 406.394531 220.28125 C 406.257812 220.777344 406.195312 221.285156 406.207031 221.800781 C 406.21875 222.316406 406.300781 222.816406 406.457031 223.308594 C 406.613281 223.800781 406.832031 224.257812 407.121094 224.6875 Z M 229.367188 305.996094 C 231.820312 307.675781 233.269531 305.691406 234.890625 305.144531 C 235.265625 305.019531 235.3125 303.917969 235.871094 302.101562 C 234.125 303.285156 233.421875 303.816406 232.652344 304.269531 C 231.703125 304.824219 230.707031 305.296875 229.367188 305.996094 Z M 252.710938 300.355469 C 252.390625 300.0625 252.027344 299.835938 251.628906 299.667969 C 251.226562 299.496094 250.8125 299.398438 250.378906 299.375 C 249.945312 299.347656 249.519531 299.390625 249.101562 299.507812 C 248.683594 299.625 248.292969 299.808594 247.9375 300.058594 C 247.449219 300.304688 247.222656 301.023438 246.734375 301.730469 C 249.328125 302.40625 250.585938 300.707031 252.710938 300.347656 Z M 397.542969 186.585938 C 397.550781 186.910156 397.628906 187.21875 397.773438 187.511719 C 397.921875 187.804688 398.121094 188.050781 398.375 188.253906 C 398.628906 188.457031 398.917969 188.59375 399.234375 188.671875 C 399.550781 188.746094 399.867188 188.753906 400.1875 188.6875 C 400.410156 188.640625 400.613281 188.550781 400.796875 188.417969 C 400.980469 188.285156 401.128906 188.121094 401.242188 187.925781 C 401.355469 187.730469 401.425781 187.519531 401.449219 187.292969 C 401.472656 187.066406 401.449219 186.847656 401.378906 186.632812 C 401.308594 186.414062 401.199219 186.222656 401.046875 186.054688 C 400.894531 185.886719 400.714844 185.757812 400.507812 185.664062 C 400.300781 185.574219 400.082031 185.527344 399.855469 185.527344 C 399.628906 185.527344 399.414062 185.574219 399.207031 185.667969 C 398.597656 185.871094 398.042969 186.167969 397.542969 186.566406 Z M 154.136719 86.558594 L 159.09375 85.019531 C 156.777344 83.535156 156.777344 83.535156 154.136719 86.558594 Z M 249.457031 416.425781 C 248.667969 415.886719 248.117188 415.226562 247.515625 415.171875 C 247.417969 415.164062 247.320312 415.164062 247.222656 415.179688 C 247.125 415.195312 247.03125 415.222656 246.941406 415.261719 C 246.851562 415.300781 246.769531 415.351562 246.691406 415.410156 C 246.613281 415.472656 246.546875 415.542969 246.488281 415.625 C 246.429688 415.703125 246.382812 415.789062 246.34375 415.878906 C 246.308594 415.972656 246.285156 416.066406 246.273438 416.164062 C 246.261719 416.261719 246.265625 416.359375 246.277344 416.457031 C 246.292969 416.554688 246.320312 416.648438 246.359375 416.742188 C 246.578125 417.257812 247.480469 417.613281 248.140625 417.753906 C 248.402344 417.808594 248.832031 417.082031 249.457031 416.425781 Z M 319.515625 362.0625 L 315.816406 364.457031 C 318.308594 365.675781 318.324219 365.699219 319.515625 362.0625 Z M 81.796875 192.371094 L 84.273438 187.253906 C 81.457031 187.878906 81.566406 189.410156 81.796875 192.371094 Z M 305.601562 219.832031 C 305.503906 217.773438 305.484375 216.351562 305.359375 214.945312 C 305.222656 214.402344 305.015625 213.886719 304.738281 213.398438 C 303.398438 215.371094 303.398438 215.371094 305.601562 219.832031 Z M 216.609375 246.929688 C 215.851562 247.734375 215.109375 248.15625 215.019531 248.699219 C 214.992188 248.8125 214.976562 248.929688 214.976562 249.050781 C 214.976562 249.167969 214.992188 249.285156 215.019531 249.402344 C 215.050781 249.519531 215.09375 249.628906 215.148438 249.734375 C 215.207031 249.839844 215.277344 249.933594 215.355469 250.023438 C 215.4375 250.109375 215.527344 250.1875 215.628906 250.253906 C 215.726562 250.316406 215.832031 250.371094 215.945312 250.40625 C 216.058594 250.445312 216.175781 250.472656 216.292969 250.480469 C 216.414062 250.492188 216.53125 250.484375 216.648438 250.464844 C 217.242188 250.40625 217.773438 249.730469 218.332031 249.328125 Z M 146.648438 245.902344 C 146.457031 245.917969 146.113281 245.886719 146.09375 245.953125 C 145.824219 246.816406 145.609375 247.695312 145.441406 248.585938 C 145.429688 248.660156 146.039062 248.832031 146.355469 248.96875 C 146.628906 248.308594 146.851562 247.632812 147.023438 246.941406 C 147.09375 246.621094 146.796875 246.242188 146.660156 245.894531 Z M 396.222656 163.003906 C 395.578125 162.59375 394.898438 162.257812 394.175781 162.007812 C 394.023438 161.972656 393.441406 162.824219 393.441406 163.261719 C 393.433594 163.359375 393.441406 163.453125 393.460938 163.546875 C 393.480469 163.640625 393.507812 163.730469 393.550781 163.8125 C 393.59375 163.898438 393.644531 163.980469 393.707031 164.050781 C 393.769531 164.121094 393.839844 164.1875 393.917969 164.238281 C 393.996094 164.292969 394.082031 164.335938 394.171875 164.367188 C 394.261719 164.402344 394.351562 164.421875 394.449219 164.429688 C 394.542969 164.4375 394.636719 164.433594 394.730469 164.417969 C 394.824219 164.402344 394.914062 164.375 395.003906 164.335938 C 395.414062 164.210938 395.675781 163.636719 396.230469 163 Z M 71.0625 199.785156 C 70.785156 199.878906 70.519531 200.003906 70.269531 200.160156 C 70.054688 200.347656 69.882812 200.566406 69.753906 200.820312 C 69.625 201.074219 69.550781 201.339844 69.53125 201.625 C 69.511719 201.90625 69.546875 202.183594 69.640625 202.453125 C 69.730469 202.722656 69.871094 202.960938 70.058594 203.175781 C 70.386719 203.300781 70.699219 203.277344 71.003906 203.105469 C 71.230469 202.25 71.398438 201.386719 71.511719 200.511719 C 71.542969 200.371094 71.339844 200.203125 71.074219 199.785156 Z M 182.832031 360.253906 L 182.765625 359.332031 L 179.167969 359.332031 L 179.140625 359.820312 Z M 335.261719 352.109375 L 337.410156 349.09375 C 336.992188 348.824219 336.550781 348.304688 336.160156 348.335938 C 335.179688 348.421875 334.246094 348.816406 334.441406 350.082031 C 334.652344 350.785156 334.929688 351.460938 335.273438 352.109375 Z M 68.546875 180.683594 C 68.089844 180.863281 67.683594 181.121094 67.328125 181.457031 C 66.96875 181.792969 66.683594 182.179688 66.476562 182.625 C 66.265625 183.066406 66.144531 183.53125 66.113281 184.023438 C 66.078125 184.511719 66.136719 184.988281 66.285156 185.457031 C 66.707031 185.234375 67.082031 184.949219 67.410156 184.605469 C 67.738281 184.261719 68.003906 183.875 68.207031 183.445312 C 68.410156 183.015625 68.542969 182.5625 68.601562 182.09375 C 68.660156 181.621094 68.640625 181.148438 68.546875 180.683594 Z M 94.382812 293.621094 C 95.171875 295.414062 95.503906 296.289062 95.953125 297.089844 C 96.042969 297.25 96.585938 297.15625 97.0625 297.191406 C 97.441406 295.667969 97.609375 294.324219 94.382812 293.621094 Z M 364.113281 313.601562 C 362.765625 312.929688 362.074219 312.292969 361.511719 312.390625 C 360.949219 312.488281 360.421875 313.277344 360.125 313.882812 C 360.03125 314.074219 360.832031 315.046875 361.066406 314.992188 C 362.125 314.621094 363.140625 314.160156 364.113281 313.601562 Z M 92.273438 301.933594 C 92.316406 301.5625 92.3125 301.195312 92.253906 300.824219 C 91.964844 299.84375 91.476562 298.96875 90.238281 299.246094 C 89.964844 299.304688 89.644531 299.804688 89.605469 300.132812 C 89.570312 300.378906 89.585938 300.617188 89.648438 300.855469 C 89.714844 301.09375 89.820312 301.3125 89.96875 301.507812 C 90.121094 301.703125 90.300781 301.859375 90.515625 301.984375 C 90.726562 302.105469 90.957031 302.183594 91.203125 302.214844 C 91.515625 302.296875 91.914062 302.039062 92.273438 301.933594 Z M 238.746094 302.503906 C 240.109375 303.511719 240.695312 304.261719 241.105469 304.175781 C 242.011719 303.902344 242.847656 303.480469 243.609375 302.914062 C 243.753906 302.828125 243.660156 302.355469 243.683594 301.914062 Z M 162.839844 229 C 162.140625 229.566406 161.507812 230.195312 160.945312 230.894531 C 160.578125 231.476562 161.554688 232.71875 162.070312 232.40625 C 162.800781 231.914062 163.414062 231.300781 163.902344 230.566406 C 164 230.433594 163.386719 229.792969 162.839844 229 Z M 221.703125 297.628906 L 221.675781 298.761719 L 225.960938 298.222656 L 225.921875 297.628906 Z M 196.058594 208.382812 C 196.203125 208.46875 196.382812 208.664062 196.484375 208.625 C 197.464844 208.308594 198.796875 208.945312 199.332031 207.542969 C 199.371094 207.359375 199.324219 207.199219 199.191406 207.066406 C 197.910156 206.199219 197.210938 207.492188 196.273438 207.898438 C 196.15625 207.945312 196.128906 208.207031 196.058594 208.371094 Z M 235.710938 39.722656 C 235.324219 39.277344 234.890625 38.882812 234.40625 38.546875 C 234.25 38.445312 234.082031 38.378906 233.894531 38.359375 C 233.710938 38.335938 233.53125 38.351562 233.355469 38.414062 C 233.179688 38.476562 233.027344 38.570312 232.894531 38.703125 C 232.765625 38.835938 232.671875 38.992188 232.613281 39.167969 C 232.488281 39.464844 232.488281 40.085938 232.632812 40.148438 C 233.097656 40.402344 233.589844 40.511719 234.117188 40.472656 C 234.683594 40.296875 235.214844 40.046875 235.710938 39.722656 Z M 167.097656 399.933594 C 167.707031 400.152344 167.914062 400.304688 168.058594 400.257812 C 168.742188 400.039062 169.40625 399.769531 170.0625 399.496094 C 170.058594 399.328125 170.027344 399.164062 169.964844 399.003906 C 169.257812 399.070312 168.546875 399.148438 167.84375 399.273438 C 167.6875 399.316406 167.5625 399.519531 167.097656 399.933594 Z M 201.910156 250.175781 C 201.773438 252.039062 201.730469 252.566406 201.695312 253.097656 C 201.640625 253.96875 201.851562 254.644531 202.894531 254.667969 C 203.078125 254.667969 203.417969 254.566406 203.421875 254.5 C 203.480469 253.976562 203.457031 253.457031 203.351562 252.941406 C 202.929688 251.988281 202.445312 251.0625 201.902344 250.175781 Z M 169.273438 355.894531 L 170.097656 355.894531 C 170.375 355.21875 170.570312 354.523438 170.6875 353.804688 C 170.714844 353.410156 170.257812 352.988281 170.019531 352.578125 C 169.734375 352.992188 169.285156 353.371094 169.203125 353.804688 C 169.152344 354.503906 169.175781 355.199219 169.273438 355.894531 Z M 167.535156 96.320312 C 168.746094 97.300781 169.445312 96.589844 170.035156 95.8125 C 170.207031 95.46875 170.199219 95.125 170.015625 94.785156 C 169.742188 94.5625 169.441406 94.515625 169.109375 94.636719 C 168.550781 95.164062 168.023438 95.726562 167.535156 96.320312 Z M 190.886719 298.113281 C 190.867188 297.921875 190.886719 297.589844 190.8125 297.5625 C 190.164062 297.320312 189.496094 297.144531 188.8125 297.039062 C 188.6875 297.023438 188.488281 297.632812 188.320312 297.957031 C 188.800781 298.195312 189.300781 298.378906 189.824219 298.5 C 190.152344 298.539062 190.527344 298.25 190.878906 298.113281 Z M 122.070312 141.4375 L 121.039062 140.945312 L 120.457031 143.484375 L 120.878906 143.675781 Z M 150.207031 270.667969 C 150.660156 271.03125 151.140625 271.355469 151.644531 271.648438 C 152.179688 271.851562 152.730469 272.015625 153.289062 272.136719 C 152.300781 270.480469 152.300781 270.480469 150.199219 270.667969 Z M 175.855469 93.070312 C 174.984375 93.308594 174.136719 93.617188 173.3125 93.988281 C 173.109375 94.101562 173.144531 94.628906 173.066406 94.96875 C 173.535156 95.007812 174.113281 95.230469 174.445312 95.039062 C 174.859375 94.816406 175.070312 94.230469 175.855469 93.070312 Z M 176.128906 357.324219 C 175.148438 356.742188 174.703125 356.257812 174.289062 356.285156 C 173.796875 356.3125 173.351562 356.789062 172.886719 357.074219 C 173.179688 357.449219 173.484375 358.152344 173.765625 358.140625 C 174.589844 357.976562 175.378906 357.707031 176.128906 357.332031 Z M 94.050781 361.695312 C 93.835938 363.296875 94.089844 364.488281 95.835938 364.59375 Z M 316.199219 390.753906 C 316.015625 390.363281 315.796875 389.992188 315.542969 389.648438 C 314.898438 389.882812 314.269531 390.15625 313.65625 390.464844 C 313.824219 390.765625 314.035156 391.351562 314.144531 391.332031 C 314.84375 391.191406 315.527344 391 316.199219 390.765625 Z M 109.867188 170.941406 L 110.65625 170.367188 C 110.378906 170.226562 110.101562 169.972656 109.828125 169.980469 C 109.550781 169.984375 109.292969 170.25 109.027344 170.40625 Z M 229.542969 170.011719 L 229.253906 169.082031 C 228.90625 169.152344 228.585938 169.289062 228.292969 169.496094 C 228.1875 169.609375 228.433594 170.058594 228.519531 170.355469 Z M 201.515625 180.953125 C 202.007812 181.289062 202.472656 181.730469 202.585938 181.65625 C 203 181.316406 203.371094 180.9375 203.699219 180.511719 C 203.394531 180.351562 203.027344 179.988281 202.808594 180.066406 C 202.335938 180.304688 201.90625 180.597656 201.515625 180.953125 Z M 168.050781 234.40625 C 167.601562 234.09375 167.296875 233.71875 167.042969 233.753906 C 166.671875 233.851562 166.417969 234.078125 166.285156 234.441406 C 166.226562 234.6875 166.582031 235.015625 166.757812 235.308594 Z M 241.636719 39.195312 L 240.5 39.746094 C 240.78125 40.140625 241.109375 40.492188 241.480469 40.804688 C 241.585938 40.875 242.28125 40.402344 242.253906 40.3125 C 242.097656 39.914062 241.894531 39.539062 241.636719 39.195312 Z M 406.527344 210.171875 C 407.054688 209.511719 407.5625 209.136719 407.652344 208.683594 C 407.742188 208.230469 407.378906 207.734375 407.214844 207.257812 C 406.832031 207.59375 406.234375 207.875 406.121094 208.28125 C 406 208.738281 406.320312 209.316406 406.527344 210.171875 Z M 113.25 167.089844 C 113.523438 166.429688 113.789062 165.832031 114.011719 165.214844 C 114.03125 165.160156 113.671875 164.882812 113.648438 164.902344 C 113.082031 165.375 112.539062 165.882812 111.992188 166.371094 Z M 231.363281 87.597656 C 231.097656 87.410156 230.816406 87.253906 230.515625 87.125 C 230.40625 87.089844 230.070312 87.371094 230.078125 87.386719 C 230.21875 87.667969 230.375 87.9375 230.542969 88.199219 Z M 126.191406 346.214844 L 124.1875 345.582031 C 124.132812 345.925781 123.914062 346.445312 124.054688 346.574219 C 124.46875 346.925781 124.941406 347.179688 125.460938 347.335938 C 125.742188 346.988281 125.984375 346.617188 126.183594 346.214844 Z M 99.246094 318.710938 L 100.300781 318.121094 C 100.050781 317.6875 99.761719 317.277344 99.433594 316.894531 C 99.378906 316.839844 98.613281 317.277344 98.640625 317.371094 C 98.792969 317.839844 98.996094 318.285156 99.246094 318.710938 Z M 131.058594 161.03125 C 130.789062 160.8125 130.523438 160.453125 130.246094 160.4375 C 130.054688 160.4375 129.839844 160.902344 129.632812 161.160156 C 129.914062 161.351562 130.1875 161.652344 130.484375 161.679688 C 130.65625 161.695312 130.867188 161.261719 131.058594 161.03125 Z M 144.214844 125.257812 L 145.015625 124.109375 C 144.71875 124.011719 144.378906 123.785156 144.136719 123.863281 C 143.894531 123.941406 143.671875 124.308594 143.449219 124.550781 Z M 373.714844 134.5625 L 372.78125 135.097656 C 373.078125 135.695312 373.355469 136.304688 373.703125 136.867188 C 374.003906 136.765625 374.296875 136.640625 374.574219 136.492188 Z M 346.054688 84.707031 L 346.132812 84.1875 C 345.808594 84.132812 345.480469 84.09375 345.152344 84.074219 C 345.105469 84.234375 345.074219 84.398438 345.054688 84.5625 Z M 225.570312 142.878906 C 225.390625 142.535156 225.175781 142.214844 224.925781 141.914062 C 224.476562 142.121094 224.046875 142.367188 223.640625 142.648438 C 223.824219 142.929688 224.054688 143.460938 224.191406 143.4375 C 224.675781 143.308594 225.132812 143.121094 225.570312 142.878906 Z M 422.058594 142.253906 L 420.785156 141.542969 C 420.636719 141.851562 420.296875 142.332031 420.375 142.429688 C 420.714844 142.738281 421.089844 142.996094 421.496094 143.203125 Z M 226.535156 158.9375 C 226.671875 159.265625 226.730469 159.703125 226.976562 159.886719 C 227.140625 160.007812 227.570312 159.773438 227.886719 159.695312 C 227.757812 159.375 227.714844 158.921875 227.480469 158.769531 C 227.285156 158.644531 226.863281 158.867188 226.535156 158.9375 Z M 74.558594 193.683594 C 74.453125 193.574219 74.277344 193.355469 74.257812 193.371094 C 73.984375 193.550781 73.734375 193.765625 73.480469 193.976562 L 74.027344 194.511719 Z M 242.554688 416.765625 C 242.394531 416.460938 242.269531 415.9375 242.066406 415.910156 C 241.765625 415.863281 241.417969 416.167969 241.085938 416.324219 C 241.242188 416.621094 241.371094 417.128906 241.574219 417.15625 C 241.875 417.199219 242.222656 416.910156 242.554688 416.765625 Z M 99.890625 199.117188 C 99.824219 198.832031 99.730469 198.558594 99.605469 198.296875 C 99.5625 198.222656 99.152344 198.238281 99.113281 198.296875 C 99.027344 198.5625 98.964844 198.835938 98.9375 199.113281 Z M 398.886719 215.175781 L 398.3125 215.863281 C 398.460938 215.96875 398.707031 216.191406 398.734375 216.164062 C 398.949219 215.957031 399.148438 215.734375 399.328125 215.496094 Z M 45.613281 235.28125 L 45.085938 235.914062 C 45.21875 236.007812 45.4375 236.199219 45.460938 236.179688 C 45.652344 235.988281 45.832031 235.78125 46 235.566406 Z M 406.863281 237.859375 C 406.371094 238.101562 405.796875 238.234375 405.785156 238.410156 C 405.804688 238.894531 405.894531 239.363281 406.054688 239.820312 C 406.359375 239.6875 406.878906 239.601562 406.917969 239.410156 C 406.964844 238.894531 406.945312 238.378906 406.863281 237.867188 Z M 161.074219 245.53125 C 160.886719 245.371094 160.675781 245.265625 160.4375 245.203125 C 160.203125 245.144531 159.964844 245.140625 159.726562 245.1875 C 159.484375 245.238281 159.269531 245.335938 159.078125 245.488281 C 158.882812 245.636719 158.730469 245.820312 158.621094 246.039062 C 158.808594 246.199219 159.019531 246.3125 159.257812 246.375 C 159.496094 246.4375 159.734375 246.445312 159.976562 246.394531 C 160.214844 246.34375 160.433594 246.246094 160.625 246.09375 C 160.820312 245.941406 160.96875 245.753906 161.074219 245.53125 Z M 60.804688 263.574219 L 60.355469 263.820312 C 60.582031 264.09375 60.832031 264.339844 61.113281 264.558594 C 61.167969 264.59375 61.496094 264.214844 61.695312 264.027344 Z M 63.070312 267.613281 C 62.625 267.382812 62.136719 267.007812 62.027344 267.097656 C 61.632812 267.484375 61.285156 267.90625 60.980469 268.367188 C 61.289062 268.535156 61.746094 268.917969 61.878906 268.824219 C 62.316406 268.464844 62.710938 268.058594 63.058594 267.613281 Z M 379.816406 277.628906 L 380.527344 276.800781 C 380.261719 276.613281 379.925781 276.21875 379.757812 276.28125 C 379.46875 276.390625 379.285156 276.773438 379.054688 277.050781 C 379.289062 277.246094 379.542969 277.4375 379.796875 277.628906 Z M 199.898438 299.0625 C 200.292969 299.308594 200.46875 299.511719 200.582031 299.480469 C 200.917969 299.367188 201.246094 299.226562 201.5625 299.0625 Z M 366.5 310 C 366.253906 309.601562 365.96875 309.058594 365.90625 309.082031 C 365.4375 309.285156 364.992188 309.527344 364.5625 309.804688 C 364.738281 310.089844 364.976562 310.644531 365.070312 310.617188 C 365.566406 310.457031 366.039062 310.25 366.492188 310 Z M 201.625 351.679688 L 200.625 352.066406 C 200.746094 352.335938 200.902344 352.84375 200.976562 352.832031 C 201.441406 352.730469 201.898438 352.59375 202.339844 352.417969 Z M 222.15625 348.714844 L 221.363281 349.050781 C 221.539062 349.109375 221.730469 349.238281 221.882812 349.203125 C 222.164062 349.121094 222.433594 349.011719 222.695312 348.878906 Z M 291.351562 320.027344 L 290.703125 320.851562 C 291.007812 320.980469 291.367188 321.269531 291.605469 321.195312 C 291.882812 321.109375 292.054688 320.703125 292.273438 320.425781 Z M 66.402344 325.066406 C 66.300781 324.75 66.175781 324.441406 66.023438 324.144531 C 65.992188 324.089844 65.546875 324.144531 65.535156 324.230469 C 65.46875 324.546875 65.4375 324.867188 65.429688 325.1875 Z M 325.609375 340.265625 C 325.285156 340.1875 324.917969 339.972656 324.65625 340.066406 C 324.398438 340.160156 324.296875 340.570312 324.125 340.839844 C 324.445312 340.917969 324.816406 341.136719 325.074219 341.042969 C 325.332031 340.953125 325.417969 340.5625 325.601562 340.289062 Z M 141.660156 342.089844 L 142.203125 341.929688 C 141.984375 341.6875 141.746094 341.464844 141.492188 341.261719 C 141.425781 341.214844 141.207031 341.378906 141.058594 341.445312 Z M 271.867188 52.679688 C 271.582031 52.519531 271.292969 52.226562 271.011719 52.230469 C 270.730469 52.234375 270.4375 52.53125 270.152344 52.699219 C 270.441406 52.859375 270.734375 53.144531 271.023438 53.144531 C 271.3125 53.144531 271.585938 52.859375 271.867188 52.679688 Z M 160.476562 339.410156 L 160.011719 339.378906 L 160.433594 339.765625 Z M 70.617188 337.429688 C 70.59375 337.28125 70.601562 337.015625 70.542969 337 C 70.183594 336.921875 69.824219 336.859375 69.460938 336.816406 L 69.554688 337.605469 Z M 319.289062 126.117188 L 318.851562 125.839844 L 318.585938 126.535156 C 318.761719 126.535156 318.960938 126.597656 319.097656 126.535156 C 319.234375 126.472656 319.238281 126.257812 319.289062 126.117188 Z M 113.683594 337.378906 C 113.53125 337.074219 113.441406 336.613281 113.195312 336.511719 C 112.949219 336.410156 112.566406 336.675781 112.242188 336.78125 C 112.382812 337.085938 112.460938 337.582031 112.675781 337.652344 C 112.960938 337.742188 113.355469 337.488281 113.683594 337.378906 Z M 330.800781 334.636719 L 330.75 334.101562 C 330.445312 334.132812 330.144531 334.183594 329.847656 334.261719 C 329.800781 334.261719 329.847656 334.578125 329.847656 334.75 C 330.164062 334.714844 330.484375 334.675781 330.8125 334.636719 Z M 352.574219 332.714844 L 352.203125 332.660156 L 352.257812 333.019531 Z M 273.140625 348.136719 L 273.585938 347.847656 C 273.289062 347.707031 272.976562 347.59375 272.65625 347.503906 C 272.53125 347.480469 272.367188 347.683594 272.222656 347.785156 Z M 119.945312 157.4375 C 119.699219 157.289062 119.441406 157.164062 119.171875 157.066406 C 119.113281 157.050781 118.847656 157.375 118.882812 157.46875 C 119.003906 157.726562 119.152344 157.96875 119.328125 158.191406 C 119.535156 157.941406 119.730469 157.691406 119.945312 157.4375 Z M 124.71875 158.289062 L 124.394531 158.691406 L 125.070312 158.988281 C 125.105469 158.824219 125.214844 158.621094 125.15625 158.5 C 125.097656 158.375 124.878906 158.355469 124.71875 158.289062 Z M 225.640625 418.820312 C 225.484375 418.75 225.226562 418.585938 225.195312 418.625 C 225.074219 418.792969 224.980469 418.976562 224.910156 419.175781 C 225.085938 419.199219 225.257812 419.191406 225.429688 419.15625 C 225.523438 419.117188 225.566406 418.929688 225.640625 418.820312 Z M 168.945312 166.136719 L 168.660156 165.699219 C 168.421875 165.871094 168.195312 166.058594 167.984375 166.265625 C 167.960938 166.292969 168.152344 166.527344 168.230469 166.664062 Z M 172.324219 166.316406 C 172.28125 166.148438 172.214844 165.996094 172.121094 165.851562 C 172.085938 165.8125 171.753906 165.925781 171.753906 165.976562 C 171.773438 166.144531 171.820312 166.308594 171.886719 166.464844 Z M 212.257812 166.617188 C 211.925781 166.515625 211.585938 166.445312 211.242188 166.402344 C 211.128906 166.402344 210.894531 166.710938 210.914062 166.734375 C 211.070312 166.949219 211.359375 167.324219 211.445312 167.285156 C 211.746094 167.105469 212.019531 166.886719 212.257812 166.628906 Z M 213.554688 181.292969 L 213.492188 181.652344 L 213.835938 181.578125 Z M 398.519531 181.632812 C 398.863281 181.542969 399.171875 181.390625 399.453125 181.175781 C 399.546875 181.070312 399.261719 180.628906 399.152344 180.339844 C 398.828125 180.46875 398.414062 180.519531 398.214844 180.757812 C 398.113281 180.890625 398.40625 181.339844 398.519531 181.636719 Z M 162.105469 191.703125 C 161.878906 191.535156 161.632812 191.394531 161.371094 191.285156 C 161.277344 191.257812 160.972656 191.519531 160.992188 191.597656 C 161.078125 191.890625 161.191406 192.171875 161.335938 192.441406 Z M 91.171875 360.207031 L 91.90625 359.660156 C 91.773438 359.535156 91.578125 359.285156 91.511719 359.3125 C 91.242188 359.460938 90.992188 359.628906 90.757812 359.828125 Z M 253.25 416.675781 C 253.160156 416.5625 253.09375 416.398438 252.980469 416.359375 C 252.816406 416.328125 252.652344 416.328125 252.488281 416.359375 C 252.570312 416.539062 252.679688 416.703125 252.816406 416.847656 C 252.882812 416.898438 253.097656 416.742188 253.25 416.675781 Z M 224.25 374.082031 C 224.253906 373.984375 224.25 373.886719 224.234375 373.789062 C 224.070312 373.777344 223.90625 373.777344 223.746094 373.789062 C 223.742188 373.894531 223.75 373.996094 223.765625 374.097656 C 223.925781 374.101562 224.089844 374.097656 224.25 374.082031 Z M 184.824219 204.652344 L 184.453125 204.460938 C 184.398438 204.582031 184.273438 204.742188 184.3125 204.820312 C 184.351562 204.898438 184.542969 204.957031 184.667969 205.023438 Z M 402.488281 207.21875 C 402.652344 206.949219 402.792969 206.667969 402.921875 206.378906 C 402.921875 206.351562 402.578125 206.082031 402.488281 206.132812 C 402.199219 206.296875 401.929688 206.484375 401.679688 206.699219 Z M 168.0625 214.820312 C 167.996094 214.941406 167.84375 215.15625 167.875 215.183594 C 168.015625 215.292969 168.167969 215.382812 168.332031 215.453125 L 168.605469 214.820312 Z M 400.398438 218.648438 C 400.085938 218.511719 399.765625 218.398438 399.4375 218.3125 C 399.371094 218.300781 399.121094 218.667969 399.160156 218.726562 C 399.351562 218.992188 399.5625 219.234375 399.796875 219.464844 C 400 219.207031 400.191406 218.9375 400.398438 218.664062 Z M 288.445312 261.027344 L 288.199219 260.679688 L 288.050781 260.996094 Z M 161.230469 221.636719 C 161.1875 221.425781 161.167969 221.113281 161.121094 221.109375 C 160.792969 221.085938 160.46875 221.085938 160.140625 221.109375 C 160.1875 221.28125 160.207031 221.597656 160.289062 221.597656 C 160.601562 221.640625 160.914062 221.652344 161.230469 221.636719 Z M 89.253906 242.417969 L 89.035156 241.953125 L 88.929688 242.8125 Z M 170.113281 222.203125 C 169.839844 222.023438 169.558594 221.695312 169.289062 221.710938 C 169.019531 221.726562 168.726562 222.039062 168.445312 222.222656 C 168.726562 222.402344 169.011719 222.714844 169.296875 222.714844 C 169.582031 222.714844 169.839844 222.386719 170.113281 222.203125 Z M 155.390625 234.980469 C 155.261719 234.871094 155.132812 234.679688 154.996094 234.675781 C 154.855469 234.671875 154.65625 234.816406 154.488281 234.894531 L 155.140625 235.433594 Z M 401.085938 239.324219 L 401.085938 238.222656 L 400.070312 238.222656 C 400.011719 238.585938 400.03125 238.941406 400.132812 239.292969 C 400.210938 239.449219 400.757812 239.324219 401.085938 239.324219 Z M 131.765625 391.011719 L 131.40625 390.96875 L 131.558594 391.398438 Z M 199.386719 396.402344 L 199.722656 396.601562 L 199.785156 396.316406 Z M 136.269531 226.902344 L 135.910156 226.699219 L 135.875 227.035156 Z M 91.933594 242.476562 L 92.421875 242.632812 C 92.460938 242.488281 92.574219 242.261719 92.523438 242.21875 C 92.390625 242.113281 92.234375 242.070312 92.0625 242.089844 C 92.003906 242.097656 91.972656 242.34375 91.933594 242.476562 Z M 328.4375 382.164062 L 328.828125 382.378906 L 328.878906 382.03125 Z M 101.75 217.421875 L 101.125 217.234375 L 101.226562 217.582031 Z M 66.25 215.664062 L 66.078125 216.171875 C 66.234375 216.21875 66.460938 216.34375 66.527344 216.285156 C 66.640625 216.183594 66.648438 215.96875 66.699219 215.792969 Z M 377.863281 212.65625 C 377.726562 212.59375 377.585938 212.550781 377.4375 212.535156 C 377.378906 212.535156 377.332031 212.742188 377.28125 212.851562 C 377.417969 212.917969 377.5625 212.957031 377.710938 212.972656 C 377.769531 212.96875 377.8125 212.773438 377.863281 212.664062 Z M 173.027344 267.550781 C 172.914062 267.691406 172.730469 267.820312 172.722656 267.96875 C 172.710938 268.113281 172.875 268.269531 172.96875 268.421875 C 173.074219 268.285156 173.261719 268.152344 173.269531 268.011719 C 173.28125 267.871094 173.113281 267.707031 173.027344 267.550781 Z M 402.6875 209.007812 L 402.484375 209.484375 L 403.242188 209.601562 C 403.210938 209.429688 403.242188 209.214844 403.132812 209.09375 C 403.023438 208.96875 402.839844 209.046875 402.6875 209.007812 Z M 91.472656 273.960938 C 91.546875 273.804688 91.59375 273.640625 91.617188 273.46875 C 91.617188 273.417969 91.359375 273.371094 91.21875 273.324219 C 91.144531 273.476562 91.101562 273.640625 91.082031 273.8125 C 91.082031 273.867188 91.332031 273.910156 91.472656 273.960938 Z M 113.109375 276.492188 L 112.742188 276.980469 L 113.234375 276.847656 C 113.195312 276.738281 113.15625 276.613281 113.109375 276.492188 Z M 325.382812 359.722656 L 325.871094 359.890625 C 325.910156 359.738281 326.023438 359.527344 325.960938 359.445312 C 325.898438 359.359375 325.660156 359.332031 325.503906 359.28125 Z M 295.4375 315.726562 C 295.46875 315.867188 295.460938 316.078125 295.546875 316.128906 C 295.714844 316.195312 295.890625 316.230469 296.070312 316.234375 L 295.921875 315.519531 Z M 209.457031 417.597656 C 209.292969 417.523438 209.121094 417.476562 208.9375 417.457031 C 208.878906 417.457031 208.832031 417.703125 208.773438 417.839844 C 208.941406 417.910156 209.113281 417.953125 209.292969 417.972656 C 209.34375 417.96875 209.390625 417.726562 209.457031 417.597656 Z M 64.03125 190.144531 L 64.492188 190.390625 L 64.535156 189.960938 Z M 404.777344 187.84375 C 404.667969 187.757812 404.5625 187.609375 404.445312 187.597656 C 404.324219 187.585938 404.199219 187.722656 404.085938 187.792969 C 404.195312 187.878906 404.300781 188.039062 404.417969 188.039062 C 404.53125 188.039062 404.660156 187.914062 404.777344 187.84375 Z M 223.585938 172.164062 L 223.152344 172.355469 L 223.589844 172.542969 Z M 106.71875 318.726562 L 106.457031 319.125 L 106.84375 319.21875 Z M 97.046875 164.191406 L 96.191406 164.117188 C 96.324219 164.222656 96.449219 164.398438 96.59375 164.410156 C 96.734375 164.421875 96.894531 164.273438 97.046875 164.191406 Z M 176.363281 162.214844 L 176.574219 162.703125 L 176.796875 162.214844 Z M 103.058594 322.667969 L 103.269531 322.355469 L 102.933594 322.300781 Z M 107.085938 331.199219 C 107.03125 331.042969 107.019531 330.835938 106.910156 330.75 C 106.835938 330.695312 106.628906 330.808594 106.480469 330.847656 C 106.53125 331 106.542969 331.21875 106.648438 331.289062 C 106.75 331.363281 106.921875 331.230469 107.074219 331.191406 Z M 181.335938 155.441406 L 181.539062 155.136719 L 181.234375 155.082031 Z M 424.21875 152.257812 C 423.914062 152.101562 423.597656 151.976562 423.269531 151.878906 C 423.183594 151.859375 422.9375 152.140625 422.9375 152.285156 C 422.9375 152.425781 423.199219 152.691406 423.285156 152.671875 C 423.609375 152.5625 423.921875 152.425781 424.21875 152.257812 Z M 120.464844 150.128906 L 120.496094 149.796875 L 120.140625 149.9375 Z M 152.234375 147.675781 L 152.28125 147.40625 L 151.921875 147.496094 Z M 345.339844 136.769531 L 344.988281 136.945312 L 345.34375 137.109375 Z M 137.339844 130.699219 L 136.890625 130.828125 L 137.457031 131.074219 Z M 121.691406 332.4375 L 121.34375 332.210938 L 121.28125 332.542969 Z M 121.9375 127.457031 C 121.804688 127.355469 121.675781 127.191406 121.53125 127.179688 C 121.390625 127.167969 121.222656 127.300781 121.066406 127.367188 C 121.203125 127.464844 121.332031 127.628906 121.476562 127.644531 C 121.617188 127.660156 121.789062 127.53125 121.9375 127.460938 Z M 150.039062 120.125 L 149.992188 120.453125 L 150.367188 120.328125 Z M 138.535156 115.316406 L 138.042969 115.527344 L 138.515625 115.753906 Z M 291.953125 90.8125 L 292.308594 90.675781 L 291.953125 90.535156 Z M 43.996094 339.46875 C 43.863281 339.484375 43.671875 339.46875 43.613281 339.53125 C 43.558594 339.59375 43.558594 339.820312 43.535156 339.96875 L 44.15625 339.886719 Z M 296.183594 58.28125 C 296.015625 58.308594 295.859375 58.367188 295.714844 58.453125 C 295.664062 58.496094 295.78125 58.726562 295.824219 58.871094 C 295.992188 58.847656 296.148438 58.789062 296.292969 58.699219 C 296.34375 58.652344 296.226562 58.425781 296.183594 58.28125 Z M 296.183594 58.28125 " fill-opacity="1" fill-rule="nonzero"/></g></svg>