<svg xmlns="http://www.w3.org/2000/svg" xmlns:xlink="http://www.w3.org/1999/xlink" width="600" zoomAndPan="magnify" viewBox="0 0 450 455.999984" height="608" preserveAspectRatio="xMidYMid meet" version="1.0"><path fill="#000000" d="M 202.089844 24.03125 C 173.359375 24.03125 145.835938 46.140625 119.527344 90.363281 C 119.5 90.410156 119.46875 90.460938 119.445312 90.511719 C 99.9375 128.171875 90.605469 175.105469 91.449219 231.304688 C 91.476562 232.902344 92.777344 234.183594 94.371094 234.183594 C 94.386719 234.183594 94.402344 234.183594 94.414062 234.179688 C 96.027344 234.15625 97.316406 232.832031 97.292969 231.21875 C 96.464844 176.042969 105.558594 130.070312 124.582031 93.292969 C 149.746094 51.015625 175.597656 29.875 202.128906 29.875 C 203.476562 29.875 204.828125 29.929688 206.179688 30.039062 L 206.175781 30.039062 C 216.046875 32.84375 223.644531 43.429688 228.972656 61.792969 C 229.023438 61.96875 229.089844 62.136719 229.171875 62.300781 C 232.628906 69.105469 234.355469 94.921875 234.347656 139.746094 C 234.347656 139.910156 234.363281 140.078125 234.390625 140.242188 C 236.222656 150.929688 238.847656 159.910156 242.257812 167.1875 L 242.265625 167.207031 C 246.636719 176.371094 251.097656 183.679688 255.640625 189.125 L 255.648438 189.136719 C 286.503906 225.71875 302.808594 246.113281 304.558594 250.316406 C 304.628906 250.484375 304.710938 250.644531 304.8125 250.796875 C 313.585938 264.160156 320.320312 278.917969 325.023438 295.066406 L 325.019531 295.066406 C 333.285156 324.894531 329.488281 353.816406 313.628906 381.832031 L 313.625 381.832031 C 295.140625 410.253906 271.34375 426.949219 242.230469 431.921875 L 242.226562 431.921875 C 240.335938 432.113281 238.425781 432.207031 236.496094 432.207031 C 214.945312 432.207031 191.203125 420.234375 165.261719 396.285156 C 142.726562 375.351562 127.78125 348.257812 120.417969 314.996094 C 120.117188 313.632812 118.910156 312.707031 117.570312 312.707031 C 117.359375 312.707031 117.148438 312.726562 116.9375 312.773438 C 115.359375 313.125 114.367188 314.683594 114.714844 316.257812 C 122.339844 350.703125 137.863281 378.804688 161.285156 400.5625 L 161.292969 400.570312 C 188.351562 425.554688 213.421875 438.050781 236.496094 438.050781 C 238.65625 438.050781 240.800781 437.941406 242.929688 437.71875 C 242.992188 437.714844 243.054688 437.703125 243.117188 437.695312 C 273.996094 432.449219 299.15625 414.851562 318.601562 384.894531 C 318.632812 384.84375 318.664062 384.796875 318.691406 384.742188 C 335.371094 355.300781 339.355469 324.875 330.640625 293.46875 C 330.636719 293.457031 330.636719 293.445312 330.632812 293.433594 C 325.792969 276.808594 318.859375 261.601562 309.835938 247.804688 L 309.832031 247.804688 C 307.378906 242.570312 290.808594 221.765625 260.128906 185.382812 C 255.902344 180.316406 251.707031 173.425781 247.546875 164.710938 C 244.386719 157.964844 241.9375 149.566406 240.195312 139.511719 L 240.191406 139.511719 C 240.191406 94.4375 238.300781 67.914062 234.519531 59.933594 L 234.515625 59.933594 C 228.535156 39.457031 219.515625 27.589844 207.453125 24.332031 C 207.285156 24.285156 207.117188 24.257812 206.941406 24.242188 C 205.320312 24.101562 203.703125 24.03125 202.089844 24.03125 Z M 202.089844 24.03125 " fill-opacity="1" fill-rule="nonzero"/><path fill="#ff9302" d="M 256.789062 63 L 251.527344 63.113281 C 237.511719 63.734375 223.085938 65.640625 209.875 72.390625 C 183.289062 85.972656 167.316406 100.859375 158.621094 112.558594 C 153.113281 119.96875 147 127.289062 141.703125 135.660156 C 136.40625 144.027344 131.453125 153.066406 126.839844 162.773438 L 96.277344 208.894531 C 77.984375 238.3125 63.859375 265.0625 53.894531 289.152344 C 45.96875 310.046875 42.074219 323.289062 42.074219 323.289062 C 34.3125 349.703125 36.5 353.433594 36.5 353.433594 C 35.671875 364.148438 37.171875 379.578125 37.171875 379.578125 C 37.316406 389.898438 44.085938 401.730469 44.085938 401.730469 C 49.707031 411.550781 57.25 419.890625 57.25 419.890625 C 66.171875 427.851562 71.035156 432.523438 76.660156 434.050781 C 83.144531 435.816406 91.796875 437.0625 102.613281 437.050781 C 141.519531 437.011719 183.722656 419.332031 227.820312 383.011719 C 242.609375 370.828125 253.96875 356.191406 264.507812 341.621094 C 267.632812 337.304688 278.253906 311.539062 299.605469 265.363281 C 305.722656 252.132812 313.410156 245.527344 318.464844 243.328125 C 321.410156 240.960938 327.023438 238.363281 335.421875 238.546875 C 374.0625 239.382812 396.34375 241.207031 402.289062 240.394531 C 413.460938 238.867188 419 235.605469 420.171875 231.496094 C 422.257812 224.164062 422.183594 208.242188 416.101562 184 C 411.089844 164.023438 399.320312 145.085938 382.5625 127.292969 C 342.839844 85.117188 300.613281 63.96875 256.789062 63 Z M 256.789062 63 " fill-opacity="1" fill-rule="nonzero"/><path fill="#2fc688" d="M 85.019531 211.90625 L 86.035156 214.183594 L 87.050781 216.464844 L 85.019531 211.90625 " fill-opacity="1" fill-rule="nonzero"/><path fill="#2fc688" d="M 350.496094 35.433594 L 347.980469 35.59375 C 341.09375 36.441406 332.707031 40.683594 322.816406 48.316406 C 274.207031 101.328125 240 133.585938 220.199219 145.097656 C 202.070312 155.058594 182.933594 162.304688 162.792969 166.835938 C 154.132812 168.953125 128.296875 172.292969 85.289062 176.851562 C 78.308594 177.863281 71.375 179.597656 64.492188 182.058594 C 49.777344 187.386719 39.804688 196.417969 34.5625 209.15625 C 30.578125 219.269531 31.738281 229.386719 38.046875 239.507812 C 42.722656 248.847656 55.8125 259.75 77.316406 272.21875 C 83.996094 275.207031 91.265625 277.65625 99.128906 279.5625 C 106.992188 281.472656 115.445312 282.839844 124.492188 283.667969 C 135.410156 287.605469 152.777344 291.667969 176.589844 295.851562 C 194.953125 298.828125 216.277344 299.601562 240.554688 298.179688 C 257.746094 297.152344 273.046875 294.195312 286.464844 289.3125 C 302.410156 282.363281 311.414062 277.613281 313.46875 275.070312 C 332.523438 262.398438 349.761719 238.949219 365.1875 204.730469 C 381.542969 164.222656 389.929688 128.015625 390.339844 96.105469 C 389.609375 78.640625 385.101562 64.558594 376.820312 53.855469 C 365.253906 41.972656 356.480469 35.832031 350.496094 35.433594 Z M 350.496094 35.433594 " fill-opacity="1" fill-rule="nonzero"/><path fill="#000000" d="M 199.695312 23.25 L 198.820312 23.265625 C 178.183594 24.664062 156.820312 39.117188 134.726562 66.621094 C 115.429688 92.050781 102.847656 122.570312 96.988281 158.179688 L 103.039062 157.636719 C 108.386719 129.25 116.171875 106.726562 126.390625 90.0625 C 136.253906 72.800781 147.125 59.097656 158.996094 48.957031 C 190.242188 23.664062 211.382812 22.527344 222.410156 45.542969 C 227.210938 54.570312 230.320312 64.359375 231.746094 74.910156 C 232.472656 79.335938 233.007812 85.296875 233.351562 92.785156 C 233.175781 120.03125 233.386719 134.648438 233.988281 136.644531 C 234.488281 143.308594 236.515625 151.765625 240.070312 162.011719 C 243.613281 170.71875 247.726562 178.296875 252.410156 184.753906 C 254.960938 189.140625 269.183594 206.59375 295.089844 237.109375 C 301.429688 245.382812 306.519531 253.023438 310.363281 260.023438 C 322.253906 282.121094 328.558594 302.171875 329.28125 320.179688 C 329.9375 336.910156 326.835938 353.574219 319.96875 370.179688 C 312.546875 386.71875 301.191406 400.871094 285.898438 412.636719 C 259.398438 433.894531 232.3125 437.769531 204.648438 424.265625 L 201.578125 429.273438 L 205.992188 431.269531 C 216.167969 435.753906 226.542969 438.019531 237.113281 438.070312 C 265.910156 435.140625 290.363281 421.390625 310.472656 396.8125 C 328.257812 375.054688 336.355469 347.648438 334.769531 314.589844 C 333.164062 296.738281 326.285156 276.820312 314.125 254.832031 C 310.914062 249.035156 305.871094 241.628906 299 232.605469 C 273.605469 202.761719 259.675781 185.699219 257.214844 181.425781 C 252.742188 175.257812 248.84375 168.085938 245.519531 159.910156 C 242.195312 150.480469 240.265625 142.28125 239.730469 135.308594 C 239.214844 133.359375 239.03125 119.109375 239.1875 92.554688 C 238.925781 86.085938 238.425781 80.296875 237.691406 75.183594 C 236.203125 64.472656 233.554688 55.1875 229.75 47.332031 C 223.484375 31.875 213.46875 23.847656 199.695312 23.25 Z M 199.695312 23.25 " fill-opacity="1" fill-rule="nonzero"/></svg>